<?xml version="1.0" encoding="utf-8"?>
<!-- Generator: Adobe Illustrator 26.0.0, SVG Export Plug-In . SVG Version: 6.00 Build 0)  -->
<svg version="1.1" xmlns="http://www.w3.org/2000/svg" xmlns:xlink="http://www.w3.org/1999/xlink" x="0px" y="0px"
	 viewBox="0 0 260 100" style="enable-background:new 0 0 260 100;" xml:space="preserve">
<style type="text/css">
	.st0{fill:#212121;}
	.st1{display:none;}
	.st2{display:inline;}
	.st3{fill:#E8E7E7;}
	.st4{fill:none;}
	.st5{font-family:'PlayfairDisplay-Regular';}
	.st6{font-size:52px;}
</style>
<g id="Background">
	<rect id="XMLID_574_" x="-26.8" y="-3.6" class="st0" width="2000" height="2000"/>
</g>
<g id="Layer_1" class="st1">
	<g id="XMLID_1584_" class="st2">
		<g id="XMLID_655_">
			<g id="XMLID_658_">
				<path id="XMLID_660_" class="st3" d="M603.4,63.7c0,0-6.5-3.8-16.4,2.2c-7.7,4.7-19.4-2.7-36.6-6.4
					c-17.5-3.8-45.8-0.9-66.9,17.2c0,0-4.7-0.3-9.8-0.8c-12.6-1.2-34.4-2.7-43.5,3.3c-8.3,5.5-5.4,12.5-5.4,12.5s2.7-13,36.7-12.2
					c36.1,0.8,79.5,10.5,106.1-3.1c-1,0.5-13.6,4.3-31.5,4.1c-20.3-0.2-38.4-2-45.5-2.8c0,0,27.4-21.8,63.3-12.3
					c28.9,7.6,41.2,11.5,44.6,19.1c0,0-0.1-10.2-11.7-13c0.7-0.3,1.5-0.6,2.2-1.1C595.2,66.6,598.3,63.5,603.4,63.7z"/>
				<path id="XMLID_659_" class="st3" d="M567.6,76.5c0.4-0.2,0.5-0.3,0.5-0.3C568,76.3,567.8,76.4,567.6,76.5z"/>
			</g>
			<path id="XMLID_656_" class="st3" d="M556.9,91.3c8.7,0,15.8,7.1,15.8,15.8c0,1.8-0.3,3.6-0.9,5.2c1.6-2.4,2.6-5.3,2.6-8.4
				c0-8.2-6.7-14.9-14.9-14.9c-4.2,0-8,1.7-10.7,4.5C551.1,92.1,553.9,91.3,556.9,91.3z"/>
		</g>
		<path id="XMLID_755_" class="st3" d="M885.2,1490.1c-0.4,0.4-0.8,0.8-1.2,1.2c-0.5,0.4-0.9,0.9-1.4,1.4c-4.1,4-10.2,9.6-18.8,16.1
			c-8.5,6.5-19.4,13.8-32.7,20.7c-13.3,7-29.2,13.6-47.2,19c-18,5.3-38.3,9.4-60.2,11.3c-1.4,0.1-2.7,0.2-4.1,0.3
			c-1.4,0.1-2.8,0.2-4.2,0.3c-1.4,0.1-2.8,0.2-4.2,0.2c-1.4,0.1-2.8,0.1-4.3,0.2c-2.8,0.1-5.7,0.2-8.6,0.3c-2.9,0-5.8,0-8.7,0
			c-11.7-0.1-23.8-0.5-36.2-1.7c-0.8-0.1-1.5-0.1-2.3-0.2c-0.8-0.1-1.6-0.1-2.3-0.2c-1.6-0.2-3.1-0.3-4.7-0.5
			c-3.1-0.3-6.3-0.6-9.4-1.1c-3.2-0.4-6.3-0.8-9.5-1.2c-3.2-0.5-6.4-0.9-9.6-1.4c-12.9-2-26.1-4.4-39.4-7.2
			c-13.4-2.8-27-5.9-40.8-9.2c-13.8-3.3-27.8-6.8-42-10.5c-28.4-7.3-55.9-14.8-82.5-22.3c-13.3-3.8-26.3-7.6-39.1-11.4
			c-12.8-3.8-25.4-7.5-37.9-10.9c-12.5-3.4-24.8-6.5-36.9-9.2c-12.1-2.6-24-4.8-35.6-6.3c-2.9-0.4-5.8-0.7-8.6-1
			c-1.4-0.2-2.9-0.3-4.3-0.4c-1.4-0.1-2.8-0.3-4.2-0.4c-0.7-0.1-1.4-0.1-2.1-0.2c-0.7,0-1.4-0.1-2.1-0.1c-1.4-0.1-2.8-0.2-4.2-0.2
			c-1.4-0.1-2.8-0.2-4.1-0.2c-1.4-0.1-2.7-0.1-4.1-0.1c-2.7,0-5.4-0.1-8.1-0.1c-2.7,0-5.3,0.1-7.9,0.1c-2.6,0-5.2,0.2-7.7,0.3
			c-1.3,0.1-2.5,0.1-3.8,0.2c-0.6,0-1.3,0.1-1.9,0.1c-0.6,0.1-1.2,0.1-1.9,0.2c-2.5,0.2-4.9,0.4-7.3,0.6c-0.6,0.1-1.2,0.1-1.8,0.2
			c-0.6,0.1-1.2,0.1-1.8,0.2c-1.2,0.1-2.4,0.3-3.5,0.4c-1.2,0.1-2.3,0.3-3.5,0.4c-0.6,0.1-1.1,0.1-1.7,0.2c-0.6,0.1-1.1,0.2-1.7,0.3
			c-2.5,0.3-5,0.7-7.5,1.1h0c0,0-31.7,3.6-62.5,14.6c15.3-8.7,36-17,36.2-17.1c47.2-16.9,120.6-32.2,222.8-24.2
			c0,0,47.1-56,149.4-50.8c102.3,5.2,230.6,60.1,256,78.8c0,0-68.1,59.1-320.2-4.7c0,0,147.1,59.7,264,52.8
			c130.9-7.8,178.2-97.7,178.2-97.7c-41.2,20.5-104,4.3-177.2-17.1c-62.6-18.2-110.3-39.5-195-39.5c-43.1,0-87.1,5.1-124.3,26.9
			c-23.3,13.7-38.5,27-38.5,27s-207.7-5.6-281.6,82c0,0,2.8-0.9,8.3-2.7c0.7-0.2,1.4-0.5,2.2-0.7c0.8-0.2,1.6-0.5,2.4-0.7
			c1.7-0.5,3.5-1,5.5-1.6c2-0.6,4.2-1.1,6.5-1.7c1.2-0.3,2.3-0.6,3.6-0.9c0.6-0.2,1.2-0.3,1.9-0.5c0.6-0.2,1.3-0.3,1.9-0.4
			c2.6-0.6,5.4-1.2,8.3-1.9c2.9-0.6,6-1.2,9.2-1.8c0.4-0.1,0.8-0.2,1.2-0.2c0.4-0.1,0.8-0.1,1.2-0.2c0.8-0.1,1.7-0.3,2.5-0.4
			c1.7-0.3,3.4-0.6,5.1-0.8c1.7-0.3,3.5-0.5,5.3-0.8c1.8-0.2,3.7-0.5,5.5-0.7c0.9-0.1,1.9-0.2,2.8-0.3c1-0.1,1.9-0.2,2.9-0.3
			c1.9-0.2,3.9-0.4,5.9-0.6c2-0.1,4.1-0.3,6.1-0.4c2.1-0.1,4.2-0.3,6.3-0.4c2.1-0.1,4.3-0.2,6.5-0.3c0.5,0,1.1,0,1.6-0.1
			c0.6,0,1.1,0,1.7,0c1.1,0,2.2,0,3.4,0c1.1,0,2.3,0,3.4,0c0.6,0,1.1,0,1.7,0c0.6,0,1.1,0,1.7,0c2.3,0,4.6,0.1,7,0.1
			c0.6,0,1.2,0,1.8,0c0.6,0,1.2,0.1,1.8,0.1c1.2,0.1,2.4,0.1,3.6,0.2c2.4,0.1,4.8,0.2,7.3,0.4c2.5,0.2,4.9,0.4,7.4,0.6
			c2.5,0.2,5,0.6,7.6,0.9c1.3,0.2,2.6,0.3,3.8,0.5c1.3,0.2,2.6,0.4,3.9,0.6c1.3,0.2,2.6,0.4,3.9,0.6c0.7,0.1,1.3,0.2,2,0.3
			c0.7,0.1,1.3,0.2,2,0.3c1.3,0.2,2.6,0.5,3.9,0.7c1.3,0.2,2.6,0.5,4,0.7c2.7,0.5,5.3,1.1,8,1.6c10.8,2.3,21.9,5.2,33.3,8.5
			c11.4,3.3,23,7.1,35,11.1c12,4,24.3,8.4,37,12.7c12.7,4.4,25.8,8.8,39.1,13c26.7,8.5,54.6,16.6,83.4,24
			c14.4,3.7,28.6,7.2,42.8,10.3c14.2,3.2,28.3,6,42.2,8.5c14,2.4,27.8,4.4,41.4,5.9c3.4,0.3,6.8,0.7,10.2,1
			c3.4,0.3,6.8,0.5,10.1,0.8c3.3,0.3,6.7,0.4,10,0.6c1.7,0.1,3.3,0.2,5,0.2c0.8,0,1.6,0.1,2.5,0.1c0.8,0,1.6,0,2.5,0.1
			c13.1,0.4,26,0.1,38.5-0.7c3.1-0.2,6.2-0.5,9.3-0.7c3.1-0.3,6.1-0.7,9.1-1c1.5-0.2,3-0.3,4.5-0.5c1.5-0.2,3-0.4,4.5-0.6
			c1.5-0.2,3-0.4,4.4-0.7c1.5-0.2,2.9-0.5,4.4-0.7c23.2-4,44.2-10.3,62.6-17.9c18.4-7.6,34.2-16.4,47.1-25.3
			c6.5-4.5,12.3-8.9,17.4-13.2c1.3-1.1,2.5-2.2,3.7-3.2c1.2-1.1,2.4-2.1,3.5-3.1c1.1-1,2.2-2.1,3.3-3c1-1,2-2,3-3
			c7.7-7.8,13.1-14.4,16.5-18.9c0.4-0.6,0.8-1.1,1.2-1.6c0.4-0.5,0.7-1,1-1.4c0.6-0.9,1.2-1.6,1.6-2.2c0.8-1.2,1.3-1.8,1.3-1.8
			s-0.5,0.5-1.6,1.6C886.6,1488.6,885.9,1489.3,885.2,1490.1z"/>
		<g id="XMLID_814_">
			<path id="XMLID_817_" class="st3" d="M1209.4,531.1c-20.8,0-39.2,10.7-49.8,27c10.9-11.8,26.4-19.2,43.8-19.2
				c32.8,0,59.4,26.6,59.4,59.4c0,12-3.6,23.1-9.7,32.5c9.7-10.6,15.7-24.7,15.7-40.2C1268.8,557.7,1242.2,531.1,1209.4,531.1z"/>
			<path id="XMLID_816_" class="st3" d="M1869.2,449.4c-4-0.3-8.1-0.5-12.3-0.8c-0.9-0.1-1.9-0.2-2.8-0.2c-0.7-0.1-1.5-0.1-2.2-0.2
				c-1.5-0.2-3-0.3-4.5-0.5c-1.5-0.2-3-0.3-4.5-0.5c-1.5-0.2-3-0.4-4.6-0.5c-3.1-0.3-6.2-0.8-9.4-1.2c-12.7-1.6-26-3.7-39.8-6.2
				c-27.8-4.9-57.9-11.3-90.1-18.1c-32.3-6.8-66.7-14-103.3-19.4c-18.3-2.7-37.1-4.8-56.4-6.2c-19.3-1.4-39-1.8-59-1.1
				c-9,0.3-17.9,0.9-26.7,1.7c-8.8,0.8-17.6,1.8-26.3,3.1c-2.2,0.3-4.3,0.7-6.5,1c-1.1,0.2-2.2,0.3-3.2,0.5
				c-1.1,0.2-2.1,0.4-3.2,0.6c-2.1,0.4-4.3,0.8-6.4,1.2c-2.1,0.4-4.2,0.9-6.4,1.3c-1.1,0.2-2.1,0.4-3.2,0.7
				c-1.1,0.2-2.1,0.5-3.1,0.7c-2.1,0.5-4.2,0.9-6.3,1.4c-4.2,1-8.3,2-12.4,3.1c-8.2,2.1-16.2,4.6-24.2,7.2c-2,0.7-3.9,1.3-5.9,2
				c-1,0.3-2,0.7-2.9,1c-1,0.3-1.9,0.7-2.9,1c-1.9,0.7-3.9,1.4-5.8,2.1c-1.9,0.7-3.9,1.5-5.8,2.2c-7.7,3-15,6.3-22.2,9.6
				c-7.1,3.3-14,6.5-20.9,9.7c-6.8,3.2-13.5,6.1-20.1,8.9c-3.3,1.4-6.6,2.6-9.9,3.9c-3.3,1.1-6.6,2.3-9.8,3.3
				c-0.8,0.3-1.6,0.5-2.4,0.8c-0.8,0.3-1.6,0.5-2.4,0.7c-1.6,0.4-3.2,0.9-4.9,1.3c-1.6,0.4-3.2,0.7-4.9,1.1l-1.2,0.3l-1.2,0.2
				c-0.8,0.2-1.6,0.3-2.4,0.5c-6.5,1.2-13.1,2-19.7,2.6c-2.4,0.2-4.8,0.5-7.2,0.7h0l0,0c-4.2,0.4-8.5,0.8-12.6,1.2
				c-3.3,0.3-6.6,0.7-9.8,1.1c-3.3,0.4-6.5,0.9-9.7,1.4c-0.8,0.1-1.6,0.2-2.4,0.4c-0.8,0.1-1.6,0.2-2.4,0.4
				c-1.6,0.3-3.1,0.6-4.7,0.9c-1.5,0.3-3.1,0.6-4.6,0.9c-0.8,0.2-1.5,0.3-2.3,0.5c-0.8,0.2-1.5,0.4-2.3,0.5c-3,0.7-6,1.4-8.9,2.2
				c-2.9,0.8-5.8,1.7-8.6,2.5c-1.4,0.4-2.8,0.8-4.2,1.2c-1.4,0.5-2.7,0.9-4.1,1.4c-1.4,0.5-2.7,0.9-4,1.4c-0.7,0.2-1.3,0.5-2,0.7
				c-0.7,0.2-1.3,0.4-2,0.7c-2.6,1-5.2,2-7.7,3c-0.6,0.2-1.3,0.5-1.9,0.7c-0.6,0.2-1.3,0.5-1.9,0.8c-1.2,0.5-2.4,1.1-3.6,1.6
				c-2.4,1.1-4.8,2.1-7.1,3.1c-2.3,1.1-4.6,2.2-6.8,3.3c-1.1,0.5-2.2,1.1-3.3,1.6c-1.1,0.5-2.1,1.1-3.2,1.7
				c-2.1,1.1-4.2,2.3-6.2,3.4c-16.2,9.1-29.1,18.4-39.1,26.6c-0.6,0.5-1.3,1-1.9,1.5c-0.6,0.5-1.2,1-1.8,1.5c-1.2,1-2.3,2-3.3,2.9
				c-1.1,0.9-2.1,1.9-3.1,2.7c-1,0.9-2,1.7-2.9,2.6c-1.8,1.7-3.5,3.3-5,4.8c-1.5,1.5-2.9,2.7-4.1,4c-4.7,4.9-7.1,7.5-7.1,7.5
				s2.7-2.3,7.9-6.7c1.3-1.1,2.8-2.3,4.4-3.5c1.6-1.3,3.4-2.7,5.4-4.2c1-0.8,2-1.5,3.1-2.3c1.1-0.8,2.2-1.6,3.3-2.4
				c1.1-0.8,2.3-1.7,3.6-2.6c0.6-0.4,1.2-0.9,1.9-1.3c0.6-0.4,1.3-0.9,2-1.3c10.6-7.1,24-15.1,40.4-22.6c2.1-0.9,4.1-1.8,6.3-2.8
				c1.1-0.5,2.1-1,3.2-1.4c1.1-0.4,2.2-0.9,3.3-1.3c2.2-0.9,4.5-1.8,6.8-2.7c2.3-0.8,4.7-1.7,7.1-2.5c1.2-0.4,2.4-0.8,3.6-1.3
				c0.6-0.2,1.2-0.4,1.8-0.6c0.6-0.2,1.2-0.4,1.9-0.6c2.5-0.8,5-1.5,7.6-2.3c0.6-0.2,1.3-0.4,1.9-0.5c0.7-0.2,1.3-0.3,2-0.5
				c1.3-0.3,2.6-0.7,4-1c1.3-0.3,2.7-0.7,4-1c1.3-0.3,2.7-0.6,4.1-0.9c2.7-0.6,5.5-1.2,8.3-1.8c2.8-0.5,5.7-1,8.6-1.5
				c0.7-0.1,1.4-0.3,2.2-0.4c0.7-0.1,1.5-0.2,2.2-0.3c1.5-0.2,2.9-0.4,4.4-0.6c1.5-0.2,3-0.4,4.5-0.6c0.7-0.1,1.5-0.2,2.3-0.2
				c0.8-0.1,1.5-0.1,2.3-0.2c3-0.3,6.1-0.6,9.2-0.8c3.1-0.2,6.3-0.3,9.5-0.5c2-0.1,4-0.1,6.1-0.2c3.8,0,26.2,0.4,46.7,3.4
				c8.6,1.2,18.2,2.5,28.8,4.1c5.3,0.8,10.8,1.6,16.5,2.5c5.7,0.9,11.6,1.8,17.6,2.7c12.1,1.9,24.9,3.8,38.1,5.9
				c6.6,1,13.4,2,20.2,3c3.4,0.5,6.9,1,10.4,1.4c3.5,0.5,7,0.9,10.5,1.4c14.1,1.8,28.4,3.4,42.9,4.4c14.5,1.1,29,1.6,43.3,1.4
				c1.8,0,3.6,0,5.4-0.1c1.8-0.1,3.6-0.1,5.3-0.2c3.6-0.1,7.1-0.4,10.6-0.6c0.9-0.1,1.8-0.1,2.6-0.2c0.9-0.1,1.7-0.2,2.6-0.2
				c1.7-0.2,3.5-0.3,5.2-0.5c1.7-0.1,3.5-0.4,5.2-0.6c1.7-0.2,3.4-0.4,5.1-0.6c1.7-0.2,3.4-0.5,5.1-0.7c1.7-0.3,3.3-0.5,5-0.8
				l1.2-0.2l1.2-0.2c0.8-0.2,1.7-0.3,2.5-0.4c1.7-0.3,3.3-0.6,4.9-0.9l1.2-0.2l1.2-0.2c0.8-0.2,1.6-0.3,2.3-0.5
				c1.6-0.3,3.1-0.7,4.6-1l1.2-0.3l0.7-0.1l0.6-0.1c0.8-0.2,1.6-0.4,2.4-0.6c1.6-0.4,3.1-0.8,4.7-1.2c6.1-1.7,12-3.8,17.5-6.1
				c5.5-2.3,10.7-4.9,15.6-7.7c4.8-2.8,9.2-5.8,13.2-8.8c4-3.1,7.6-6.3,10.8-9.4c3.2-3.2,6-6.3,8.4-9.3c2.4-3,4.5-5.9,6.2-8.5
				c3.5-5.3,5.7-9.8,7.2-12.8c0.7-1.5,1.2-2.7,1.6-3.5c0.3-0.8,0.5-1.2,0.5-1.2s-0.2,0.4-0.7,1.1c-0.5,0.7-1.2,1.8-2.1,3.2
				c-1.9,2.8-4.8,6.7-8.8,11.4c-2,2.3-4.4,4.8-7,7.4c-2.7,2.6-5.7,5.2-9,7.8c-6.7,5.2-14.8,10.3-24.3,14.6
				c-9.4,4.3-20.1,7.7-31.8,9.9c-1.5,0.3-2.9,0.6-4.4,0.8c-0.7,0.1-1.5,0.2-2.2,0.4l-0.6,0.1c-0.1,0,0,0,0,0l-0.1,0l-0.3,0l-1.2,0.2
				c-1.6,0.2-3.1,0.4-4.7,0.6c-0.8,0.1-1.6,0.2-2.4,0.3l-1.2,0.2l-1.2,0.1c-1.6,0.2-3.1,0.3-4.7,0.5c-0.8,0.1-1.6,0.2-2.4,0.3
				l-1.2,0.1l-1.2,0.1c-3.2,0.2-6.5,0.6-9.7,0.8c-1.6,0.1-3.3,0.2-4.9,0.3c-1.6,0.1-3.3,0.2-5,0.2c-1.7,0.1-3.3,0.1-5,0.2
				c-0.8,0-1.7,0.1-2.5,0.1c-0.8,0-1.7,0-2.5,0c-3.4,0-6.8,0.1-10.2,0c-1.7,0-3.4,0-5.1-0.1c-1.7,0-3.4-0.1-5.2-0.2
				c-13.8-0.4-27.8-1.5-41.8-2.9c-14-1.5-28-3.3-41.9-5.4c-3.5-0.5-6.9-1-10.3-1.5c-3.4-0.5-6.8-1-10.2-1.6
				c-6.8-1.1-13.5-2.1-20.1-3.1c-6.6-1-13.1-2-19.5-3c-6.4-1-12.6-1.9-18.7-2.8c-3.1-0.4-6.1-0.9-9-1.3c-3-0.4-5.9-0.8-8.8-1.2
				c-5.8-0.7-11.3-1.5-16.7-2.1c-0.8-0.1-1.6-0.2-2.4-0.3c1.1-0.4,2.2-0.8,3.3-1.2c7.2-2.6,14.3-5.4,21.4-8.4
				c7-2.9,14.1-5.9,21.3-8.9c7.1-2.9,14.2-5.8,21.4-8.4c1.8-0.6,3.6-1.3,5.4-1.9c1.8-0.6,3.7-1.2,5.6-1.8c0.9-0.3,1.9-0.6,2.8-0.9
				c0.9-0.3,1.9-0.6,2.8-0.9c1.9-0.6,3.8-1.2,5.7-1.8c7.6-2.2,15.3-4.4,23.1-6.3c3.9-1,7.9-1.8,11.8-2.7c2-0.4,4-0.8,6-1.2
				c1-0.2,2-0.4,3-0.6c1-0.2,2-0.4,3-0.6c2-0.4,4-0.7,6-1.1c2-0.3,4.1-0.7,6.1-1c1-0.2,2-0.3,3.1-0.5c1-0.2,2-0.3,3.1-0.5
				c2-0.3,4.1-0.6,6.2-0.9c8.2-1.1,16.6-2,25-2.8c8.4-0.7,16.9-1.2,25.4-1.5c19.1-0.6,37.9-0.3,56.5,0.7c18.6,1.1,36.9,2.8,54.8,5
				c35.8,4.4,70.2,10.3,102.7,15.8c32.5,5.4,63.3,10.3,91.7,13.5c14.2,1.6,27.9,2.9,40.8,3.6c3.2,0.2,6.4,0.4,9.6,0.5
				c1.6,0.1,3.1,0.1,4.7,0.2c1.6,0.1,3.1,0.1,4.6,0.2c1.5,0,3.1,0.1,4.6,0.1c0.8,0,1.5,0,2.3,0l0.6,0l0.3,0l0.2,0l0.6,0
				c1.7,0,3.4-0.1,5.1-0.1c0.8,0,1.6,0,2.3,0c-2.6,4.3-9.2,17.9-7.3,38.6c1.9,21.3,12.8,35.1,17.4,47.5c3.1,6.7,2.9,11.2,2.7,13.7
				c0,0,0.1-0.2,0.2-0.7c0.1-0.2,0.2-0.5,0.3-0.9c0.3-1.1,0.7-2.7,0.7-4.8c0.1-2.2-0.1-4.9-0.7-8c-0.6-3.1-1.5-6.7-2.8-10.7
				c-0.3-1-0.7-2-1-3c-0.3-1-0.7-2.1-1-3.2c-0.7-2.2-1.3-4.5-1.9-6.9c-0.6-2.4-1.1-5-1.7-7.6c-0.5-2.7-0.9-5.4-1.3-8.3
				c-0.3-2.9-0.6-5.9-0.6-8.9c0-0.8,0-1.5,0-2.3c0-0.8,0-1.5,0.1-2.3c2.6-25.3,20.9-42.3,20.9-42.3
				C1879.3,450,1869.2,449.4,1869.2,449.4z"/>
			<path id="XMLID_815_" class="st3" d="M1712.3,485.2c-16.2-1.8-60.4,0.3-83.9,44.1c-9,16.8-9.4,37.3-7.9,52.4l-294.3,21.2h298
				h27.6l0,0c-0.3-0.5-0.7-1.1-1-1.6c-0.1-0.2-0.2-0.3-0.3-0.5c-5.5-9.5-8.6-20.6-8.6-32.4c0-35.9,29.1-65,65-65
				c35.9,0,65,29.1,65,65c0,29.8-20,54.9-47.4,62.6c33.6-6.6,59-35.1,59-70.7C1783.5,534.8,1767.1,491.2,1712.3,485.2z"/>
		</g>
		<g id="XMLID_1040_">
			<g id="XMLID_1042_">
				<path id="XMLID_1043_" class="st3" d="M1684.6,1482.2c-14-1.5-52.3,0.2-72.6,38.1c-7.8,14.5-8.1,32.3-6.9,45.4l-254.7,18.4
					h257.9h23.9l0,0c-0.3-0.5-0.6-0.9-0.9-1.4c-0.1-0.1-0.2-0.3-0.2-0.4c-4.7-8.2-7.5-17.8-7.5-28c0-31.1,25.2-56.2,56.2-56.2
					c31.1,0,56.2,25.2,56.2,56.2c0,25.8-17.3,47.5-41,54.2c29.1-5.7,51.1-30.4,51.1-61.2C1746.3,1525.2,1732,1487.5,1684.6,1482.2z"
					/>
			</g>
			<path id="XMLID_1041_" class="st3" d="M1835.3,1465.6c2.9,4.7,4,11.1,4.5,16.8c0.6,6.6,0.5,13.3,0.5,19.9c0.1,0,0.1,0,0.2,0.1
				c5.7-7.3,9.2-13.6,11.3-18.7c3.9-9.5,3-20.4-2.9-28.7c-2.8-3.9-6.4-7.2-11.2-9.4c-11.8-5.5-24.2-9.9-36-15.4
				c-10.9-5-21.6-10.3-32.3-15.8c-40.3-20.6-79.9-42.8-123.4-56.1c-51-15.5-105.1-19.7-157.8-11.9c-44.7,6.7-88.1,21.6-128.6,41.3
				c-13.8,6.7-27.4,14.1-40.5,22.1c-6.1,3.7-12.8,7.4-18.4,12c-179.4-2.2-262.9,87.4-262.9,87.4c52.5-35.3,117.5-59.6,206.1-69.2
				c64.9-7,120.2,2.4,156.3,6.1c41.7,4.3,85.9,9.8,128.6,8.8c86-2.1,129.2-42,129.2-42c-68.3,34.8-168,24.6-255.9,15.6
				c-24.8-2.5-48.7-5-70.5-6.2c4.5-2.7,9.1-5.3,13.7-7.8c49.1-27.1,103.3-47,159.5-53.1c65.8-7.2,131.4,6.5,191,34.5
				c27,12.7,53,27.3,79.7,40.5c15.1,7.5,30.5,14.5,46.1,20.9c3.1,1.3,7.2,2.7,9.4,3.9C1832.7,1462.2,1834.2,1463.7,1835.3,1465.6z"
				/>
		</g>
		<g id="XMLID_1080_">
			<path id="XMLID_1082_" class="st3" d="M298.4,149.5c1-0.5-10.8-0.4-30.1-3.2c-31.5-4.6-84.1-30.5-128.3,8c0,0-56,7.5-67.2,22.5
				c-8.3,11.1,4.6,14,0,21c0,0,8.3-2,4.6-8.8c-3.7-6.8,6.8-14.7,30.5-21.5c19.2-5.5,37-8.4,37-8.4s9.1-14.2,38.7-17.9
				c29.6-3.7,52.7,11.3,66,14.8c0,0-45,18-96.9,6.3C152.9,162.2,210.4,189.8,298.4,149.5z"/>
			<path id="XMLID_1081_" class="st3" d="M175.2,175.5c0,0,15.5,6.4,44.6,4.4c9.7-0.7,23.6-2.8,36.1-6.2
				c41-11.4,40.9,19.1,40.9,19.1s-3.5-12-16.9-14.6c-15.1-2.9-29.2,5.5-56.4,7.4C193.4,187.6,175.2,175.5,175.2,175.5z"/>
		</g>
		<path id="XMLID_1096_" class="st3" d="M516.2,146.4c-0.2-0.6-0.5-1.2-0.8-1.7c-0.7-1-1.4-1.6-2.2-2.2c-0.7-0.6-1.5-1.1-2.3-1.5
			c-0.8-0.5-1.5-0.9-2.3-1.3c-1.5-0.8-3.1-1.5-4.6-2.2l-2.3-1.1l-2.3-1.1c-1.5-0.7-3-1.5-4.5-2.2c-1.5-0.7-3-1.5-4.6-2.2l-1.1-0.5
			l-1.2-0.5c-0.8-0.3-1.5-0.7-2.3-1l-2.4-1l-0.6-0.2l-0.6-0.2l-1.2-0.5c-1.6-0.6-3.2-1.1-4.8-1.7c-0.4-0.1-0.8-0.2-1.2-0.4l-1.2-0.4
			c-0.8-0.2-1.6-0.5-2.5-0.7l-2.5-0.6l-0.6-0.1c-0.2,0-0.4-0.1-0.6-0.1l-1.3-0.2l-2.5-0.5l-2.5-0.4l-1.3-0.2l-0.6-0.1
			c-0.2,0-0.4,0-0.6-0.1l-2.5-0.2c-1.7-0.2-3.4-0.3-5.1-0.4l-1.3-0.1l-0.6,0l-0.6,0l-2.5,0l-2.6,0l-2.6,0.1
			c-1.7,0.1-3.4,0.2-5.1,0.3c-3.4,0.3-6.8,0.8-10.2,1.5l-2.5,0.5c-0.8,0.2-1.7,0.4-2.5,0.6c-0.8,0.2-1.7,0.4-2.5,0.6
			c-0.8,0.2-1.7,0.4-2.5,0.7c-3.3,0.9-6.6,1.9-9.8,3c-3.2,1.1-6.4,2.3-9.6,3.6c-3.2,1.3-6.3,2.6-9.4,4c-1.5,0.7-3.1,1.4-4.6,2.2
			c-0.8,0.4-1.5,0.8-2.3,1.1c-0.5,0.2-0.9,0.5-1.4,0.7c-0.1,0-0.3,0-0.4,0c-0.6,0-1.3-0.1-1.9-0.1c-0.6,0-1.3-0.1-1.9-0.1
			c-1.3-0.1-2.6-0.1-3.8-0.1c-2.5,0-5.1,0-7.6,0.1c-1.2,0-2.5,0.1-3.7,0.2c-1.2,0.1-2.5,0.2-3.7,0.3c-2.4,0.2-4.8,0.5-7.1,0.9
			c-2.3,0.4-4.6,0.8-6.8,1.4c-2.2,0.5-4.3,1.2-6.3,1.9c-2,0.7-3.9,1.5-5.7,2.5c-1.8,0.9-3.4,2-4.9,3.2c-0.7,0.6-1.4,1.2-2,1.9
			c-0.1,0.1-0.2,0.2-0.2,0.3l-0.1,0.1l-0.1,0.1l-0.1,0.1c-0.1,0.2-0.3,0.3-0.4,0.5c-0.1,0.2-0.3,0.4-0.4,0.5
			c-0.1,0.2-0.3,0.4-0.4,0.5c-0.5,0.7-0.9,1.5-1.2,2.4c-0.3,0.8-0.4,1.7-0.5,2.5c0,0.4,0,0.8,0.1,1.2c0,0.4,0.1,0.7,0.2,1.1
			c0.2,0.7,0.5,1.3,0.7,1.8c0.6,1.1,1.2,1.9,1.6,2.6c0.5,0.7,0.9,1.3,1.1,1.8c0.2,0.5,0.3,0.9,0.3,1.2c0,0.2,0,0.3,0,0.4
			c0,0.1,0,0.1,0,0.1s0,0,0.1-0.1c0.1-0.1,0.1-0.2,0.2-0.3c0.2-0.3,0.3-0.8,0.3-1.5c0-0.7-0.2-1.5-0.5-2.3c-0.3-0.9-0.6-1.8-0.9-2.8
			c-0.3-1-0.5-2-0.3-3c0.1-1,0.5-2.1,1.3-3.2c0.1-0.1,0.2-0.3,0.3-0.4c0.1-0.1,0.2-0.3,0.3-0.4c0.1-0.1,0.2-0.3,0.4-0.4l0.2-0.2
			c0.1-0.1,0.1-0.1,0.2-0.2c0.5-0.5,1.1-1,1.8-1.5c1.3-0.9,2.8-1.8,4.4-2.6c3.3-1.5,7.1-2.6,11.3-3.4c2.1-0.4,4.2-0.7,6.5-1
			c2.2-0.2,4.5-0.4,6.8-0.6c1.2-0.1,2.3-0.1,3.5-0.1c1.2,0,2.4-0.1,3.6-0.1c2.4,0,4.8,0,7.3,0.1c1.2,0,2.5,0.1,3.7,0.2
			c0.6,0,1.2,0.1,1.9,0.1c0.6,0,1.3,0.1,1.9,0.1c2.5,0.2,5,0.3,7.6,0.5c5.1,0.3,10.1,0.7,15.1,1c2.5,0.2,5,0.4,7.4,0.5
			c2.4,0.2,4.9,0.3,7.2,0.5c4.8,0.3,9.4,0.5,13.8,0.6c2.2,0,4.3,0,6.4,0c2.1,0,4.1-0.1,6-0.3c3.9-0.3,7.4-0.7,10.5-1.4
			c1.5-0.3,3-0.6,4.3-1c1.3-0.3,2.5-0.7,3.6-1.1c2.1-0.7,3.8-1.4,4.9-1.9c0.3-0.1,0.5-0.2,0.7-0.3c0.2-0.1,0.4-0.2,0.5-0.2
			c0.3-0.1,0.4-0.2,0.4-0.2s-0.6,0.2-1.8,0.4c-0.3,0.1-0.6,0.1-1,0.2c-0.4,0.1-0.7,0.2-1.2,0.3c-0.4,0.1-0.9,0.2-1.4,0.3
			c-0.5,0.1-1,0.2-1.5,0.3c-2.2,0.4-4.8,0.7-7.9,1c-1.5,0.1-3.1,0.2-4.9,0.2c-1.7,0-3.5,0-5.4,0c-3.8-0.1-7.8-0.4-12.1-0.7
			c-2.2-0.2-4.4-0.4-6.6-0.6c-2.3-0.2-4.6-0.5-7-0.7c-2.4-0.2-4.8-0.5-7.2-0.7c-2.4-0.2-4.9-0.5-7.4-0.7c-4.1-0.4-8.3-0.7-12.5-1
			c0.2-0.1,0.4-0.2,0.6-0.3c3-1.5,5.9-3,9-4.4c3-1.4,6.1-2.7,9.2-3.9c3.1-1.2,6.3-2.3,9.4-3.3c3.2-1,6.4-1.8,9.6-2.6
			c3.2-0.7,6.5-1.3,9.8-1.7c1.6-0.2,3.3-0.3,4.9-0.4l2.5-0.1l2.5,0l2.5,0l0.6,0l0.6,0l1.2,0.1c1.7,0.1,3.3,0.1,5,0.3l2.5,0.2
			c0.2,0,0.4,0,0.6,0.1l0.6,0.1l1.2,0.2l2.5,0.3l2.4,0.4l1.2,0.2c0.2,0,0.4,0.1,0.6,0.1l0.6,0.1l2.4,0.6c0.8,0.2,1.6,0.4,2.4,0.6
			l1.2,0.3c0.4,0.1,0.8,0.2,1.2,0.4c1.6,0.5,3.2,1,4.7,1.6l1.2,0.4l0.6,0.2l0.6,0.2l2.3,1c0.8,0.3,1.5,0.7,2.3,1l1.1,0.5l1.1,0.5
			c0.8,0.4,1.5,0.7,2.3,1.1l2.2,1.1c3,1.5,6,3.1,9,4.6l1.1,0.6l0.6,0.3l0.5,0.3c0.7,0.4,1.5,0.8,2.2,1.2c0.7,0.4,1.4,0.8,2.1,1.3
			c0.7,0.4,1.3,0.9,1.8,1.4c0.6,0.5,1,1,1.3,1.5c0.1,0.2,0.2,0.4,0.2,0.6c0,0.2,0,0.4,0,0.6c-0.1,0.4-0.3,1.1-0.7,1.8
			c-0.4,0.7-0.8,1.5-1.2,2.3c-0.8,1.7-1.4,3.6-1.6,5.6c-0.1,1-0.1,2,0,3c0.1,0.9,0.2,1.7,0.4,2.5c0,0,0,0,0,0.1c0,0.2,0,0.4,0,0.6
			c0,0.4-0.1,0.9-0.1,1.3c0,0.2-0.1,0.4-0.1,0.7c0,0.2-0.1,0.4-0.1,0.7c-0.1,0.4-0.2,0.9-0.4,1.3l-0.1,0.3c0,0.1-0.1,0.2-0.1,0.3
			l-0.1,0.3c0,0.1-0.1,0.2-0.1,0.3l-0.2,0.3c-0.1,0.1-0.1,0.2-0.2,0.3c-0.1,0.2-0.2,0.4-0.4,0.6c-0.2,0.4-0.5,0.8-0.8,1.1l-0.5,0.5
			l-0.5,0.5c-0.2,0.2-0.4,0.3-0.5,0.5c-0.1,0.1-0.2,0.2-0.3,0.2l-0.3,0.2c-0.4,0.3-0.8,0.6-1.2,0.8c-0.2,0.1-0.4,0.2-0.6,0.4
			l-0.3,0.2c-0.1,0.1-0.2,0.1-0.3,0.2l-0.7,0.3l-0.7,0.3c-0.5,0.2-1,0.3-1.4,0.5c-0.2,0.1-0.5,0.1-0.7,0.2l-0.7,0.2
			c-0.5,0.1-1,0.2-1.5,0.3l-1.5,0.2l1.6,0.1c0.5,0,1,0,1.6,0l0.8,0c0.3,0,0.5,0,0.8,0c0.5-0.1,1.1-0.1,1.6-0.2l0.8-0.1l0.8-0.2
			c0.1,0,0.3-0.1,0.4-0.1l0.4-0.1c0.3-0.1,0.5-0.2,0.8-0.2c0.5-0.2,1-0.4,1.6-0.6l0.4-0.2c0.1-0.1,0.2-0.1,0.4-0.2
			c0.2-0.1,0.5-0.3,0.7-0.4l0.7-0.5l0.7-0.5c0.5-0.4,0.9-0.7,1.3-1.1c0.2-0.2,0.4-0.4,0.6-0.6c0.1-0.1,0.2-0.2,0.3-0.3l0.3-0.3
			c0.1-0.1,0.2-0.2,0.3-0.3l0.3-0.4c0.1-0.1,0.2-0.2,0.3-0.4l0.2-0.4c0.3-0.5,0.6-1,0.9-1.5c0.1-0.3,0.3-0.5,0.4-0.8
			c0.1-0.3,0.2-0.5,0.3-0.8c0.2-0.6,0.4-1.1,0.6-1.7c0.1-0.3,0.2-0.6,0.2-0.9c0-0.2,0.1-0.3,0.1-0.5c0-0.1,0-0.2,0-0.3l0-0.1l0-0.1
			l0-0.1l-0.1-0.8v0c-0.5-1.4-0.8-2.8-0.9-4.1c0-0.3,0-0.7,0-1c0-0.3,0.1-0.7,0.1-1c0.1-0.7,0.3-1.4,0.6-2.1
			c0.3-0.7,0.6-1.5,0.9-2.3c0.2-0.4,0.3-0.9,0.5-1.4c0.2-0.5,0.3-1.1,0.3-1.7C516.5,147.7,516.4,147,516.2,146.4z M509.4,162.7
			C509.4,162.7,509.4,162.6,509.4,162.7L509.4,162.7C509.4,162.7,509.4,162.7,509.4,162.7c0,0.1,0,0.2,0,0.2c0,0,0,0,0,0
			L509.4,162.7z M509.5,163.5L509.5,163.5L509.5,163.5L509.5,163.5z"/>
	</g>
</g>
<g id="Слой_6" class="st1">
	<g id="XMLID_00000096768875130511789050000001599850234510127285_" class="st2">
		<path id="XMLID_00000124865782464348248550000008515528875994270910_" class="st3" d="M252.1,26c0.7-0.3-7.9-0.3-21.9-2.3
			c-22.9-3.3-61.1-22.2-93.3,5.8c0,0-40.7,5.5-48.8,16.3c-6,8.1,3.3,10.2,0,15.3c0,0,6-1.4,3.4-6.4c-2.7-5,4.9-10.7,22.2-15.6
			c13.9-4,26.9-6.1,26.9-6.1s6.6-10.3,28.2-13c21.5-2.7,38.3,8.2,48,10.7c0,0-32.7,13.1-70.4,4.6C146.3,35.2,188.1,55.3,252.1,26z"
			/>
		<path id="XMLID_00000132083402222724071190000017746817495934730384_" class="st3" d="M162.5,44.9c0,0,11.3,4.6,32.4,3.2
			c7-0.5,17.2-2,26.2-4.5c29.8-8.3,29.8,13.9,29.8,13.9s-2.5-8.7-12.3-10.6c-11-2.1-21.2,4-41,5.4C175.7,53.7,162.5,44.9,162.5,44.9
			z"/>
	</g>
</g>
<g id="Слой_4" class="st1">
	<g id="XMLID_00000155111711716687788100000011516283101383660220_" class="st2">
		<g id="XMLID_00000121264553645244323990000018096792878218171534_">
			<path id="XMLID_00000060711098578923539340000009604269921879255446_" class="st3" d="M260.3,21.5c0,0-6.5-3.8-16.4,2.2
				c-7.7,4.7-19.4-2.7-36.6-6.4c-17.5-3.8-45.8-0.9-66.9,17.2c0,0-4.7-0.3-9.8-0.8c-12.6-1.2-29.3,0.2-39.1,6.3
				c-8.4,5.3-11.2,16.3-11.2,16.3s7.3-19.5,38.2-19c36.1,0.6,79.5,10.5,106.1-3.1c-1,0.5-13.6,4.3-31.5,4.1
				c-20.3-0.2-38.4-2-45.5-2.8c0,0,27.4-21.8,63.3-12.3c28.9,7.6,41.2,11.5,44.6,19.1c0,0-0.1-10.2-11.7-13c0.7-0.3,1.5-0.6,2.2-1.1
				C252.1,24.5,255.2,21.3,260.3,21.5z"/>
			<path id="XMLID_00000111912087496273680330000017788454458794645383_" class="st3" d="M224.4,34.3c0.4-0.2,0.5-0.3,0.5-0.3
				C224.8,34.1,224.6,34.2,224.4,34.3z"/>
		</g>
		<path id="XMLID_00000139268937945858586650000010505140182992255368_" class="st3" d="M213.8,49.2c8.7,0,15.8,7.1,15.8,15.8
			c0,1.8-0.3,3.6-0.9,5.2c1.6-2.4,2.6-5.3,2.6-8.4c0-8.2-6.7-14.9-14.9-14.9c-4.2,0-8,1.7-10.7,4.5C208,50,210.8,49.2,213.8,49.2z"
			/>
	</g>
</g>
<g id="Слой_5">
	<path id="XMLID_00000017517484351896260060000007057532673463783074_" class="st3" d="M257.5,35.6c-0.2-0.6-0.5-1.2-0.8-1.7
		c-0.7-1-1.4-1.6-2.2-2.2c-0.7-0.6-1.5-1.1-2.3-1.5c-0.8-0.5-1.5-0.9-2.3-1.3c-1.5-0.8-3.1-1.5-4.6-2.2l-2.3-1.1l-2.3-1.1
		c-1.5-0.7-3-1.5-4.5-2.2c-1.5-0.7-3-1.5-4.6-2.2l-1.1-0.5l-1.2-0.5c-0.8-0.3-1.5-0.7-2.3-1l-2.4-1l-0.6-0.2l-0.6-0.2l-1.2-0.5
		c-1.6-0.6-3.2-1.1-4.8-1.7c-0.4-0.1-0.8-0.2-1.2-0.4l-1.2-0.4c-0.8-0.2-1.6-0.5-2.5-0.7l-2.5-0.6l-0.6-0.1c-0.2,0-0.4-0.1-0.6-0.1
		l-1.3-0.2l-2.5-0.5l-2.5-0.4l-1.3-0.2l-0.6-0.1c-0.2,0-0.4,0-0.6-0.1l-2.5-0.2c-1.7-0.2-3.4-0.3-5.1-0.4l-1.3-0.1l-0.6,0l-0.6,0
		l-2.5,0l-2.6,0L182,10c-1.7,0.1-3.4,0.2-5.1,0.3c-3.4,0.3-6.8,0.8-10.2,1.5l-2.5,0.5c-0.8,0.2-1.7,0.4-2.5,0.6
		c-0.8,0.2-1.7,0.4-2.5,0.6c-0.8,0.2-1.7,0.4-2.5,0.7c-3.3,0.9-6.6,1.9-9.8,3c-3.2,1.1-6.4,2.3-9.6,3.6c-3.2,1.3-6.3,2.6-9.4,4
		c-1.5,0.7-3.1,1.4-4.6,2.2c-0.8,0.4-1.5,0.8-2.3,1.1c-0.5,0.2-0.9,0.5-1.4,0.7c-0.1,0-0.3,0-0.4,0c-0.6,0-1.3-0.1-1.9-0.1
		c-0.6,0-1.3-0.1-1.9-0.1c-1.3-0.1-2.6-0.1-3.8-0.1c-2.5,0-5.1,0-7.6,0.1c-1.2,0-2.5,0.1-3.7,0.2c-1.2,0.1-2.5,0.2-3.7,0.3
		c-2.4,0.2-4.8,0.5-7.1,0.9c-2.3,0.4-4.6,0.8-6.8,1.4c-2.2,0.5-4.3,1.2-6.3,1.9c-2,0.7-3.9,1.5-5.7,2.5c-1.8,0.9-3.4,2-4.9,3.2
		c-0.7,0.6-1.4,1.2-2,1.9c-0.1,0.1-0.2,0.2-0.2,0.3l-0.1,0.1l-0.1,0.1l-0.1,0.1c-0.1,0.2-0.3,0.3-0.4,0.5c-0.1,0.2-0.3,0.4-0.4,0.5
		c-0.1,0.2-0.3,0.4-0.4,0.5c-0.5,0.7-0.9,1.5-1.2,2.4c-0.3,0.8-0.4,1.7-0.5,2.5c0,0.4,0,0.8,0.1,1.2c0,0.4,0.1,0.7,0.2,1.1
		c0.2,0.7,0.5,1.3,0.7,1.8c0.6,1.1,1.2,1.9,1.6,2.6c0.5,0.7,0.9,1.3,1.1,1.8c0.2,0.5,0.3,0.9,0.3,1.2c0,0.2,0,0.3,0,0.4
		c0,0.1,0,0.1,0,0.1s0,0,0.1-0.1c0.1-0.1,0.1-0.2,0.2-0.3c0.2-0.3,0.3-0.8,0.3-1.5c0-0.7-0.2-1.5-0.5-2.3c-0.3-0.9-0.6-1.8-0.9-2.8
		c-0.3-1-0.5-2-0.3-3c0.1-1,0.5-2.1,1.3-3.2c0.1-0.1,0.2-0.3,0.3-0.4c0.1-0.1,0.2-0.3,0.3-0.4c0.1-0.1,0.2-0.3,0.4-0.4l0.2-0.2
		c0.1-0.1,0.1-0.1,0.2-0.2c0.5-0.5,1.1-1,1.8-1.5c1.3-0.9,2.8-1.8,4.4-2.6c3.3-1.5,7.1-2.6,11.3-3.4c2.1-0.4,4.2-0.7,6.5-1
		c2.2-0.2,4.5-0.4,6.8-0.6c1.2-0.1,2.3-0.1,3.5-0.1c1.2,0,2.4-0.1,3.6-0.1c2.4,0,4.8,0,7.3,0.1c1.2,0,2.5,0.1,3.7,0.2
		c0.6,0,1.2,0.1,1.9,0.1c0.6,0,1.3,0.1,1.9,0.1c2.5,0.2,5,0.3,7.6,0.5c5.1,0.3,10.1,0.7,15.1,1c2.5,0.2,5,0.4,7.4,0.5
		c2.4,0.2,4.9,0.3,7.2,0.5c4.8,0.3,9.4,0.5,13.8,0.6c2.2,0,4.3,0,6.4,0c2.1,0,4.1-0.1,6-0.3c3.9-0.3,7.4-0.7,10.5-1.4
		c1.5-0.3,3-0.6,4.3-1c1.3-0.3,2.5-0.7,3.6-1.1c2.1-0.7,3.8-1.4,4.9-1.9c0.3-0.1,0.5-0.2,0.7-0.3c0.2-0.1,0.4-0.2,0.5-0.2
		c0.3-0.1,0.4-0.2,0.4-0.2s-0.6,0.2-1.8,0.4c-0.3,0.1-0.6,0.1-1,0.2c-0.4,0.1-0.7,0.2-1.2,0.3c-0.4,0.1-0.9,0.2-1.4,0.3
		c-0.5,0.1-1,0.2-1.5,0.3c-2.2,0.4-4.8,0.7-7.9,1c-1.5,0.1-3.1,0.2-4.9,0.2c-1.7,0-3.5,0-5.4,0c-3.8-0.1-7.8-0.4-12.1-0.7
		c-2.2-0.2-4.4-0.4-6.6-0.6c-2.3-0.2-4.6-0.5-7-0.7c-2.4-0.2-4.8-0.5-7.2-0.7c-2.4-0.2-4.9-0.5-7.4-0.7c-4.1-0.4-8.3-0.7-12.5-1
		c0.2-0.1,0.4-0.2,0.6-0.3c3-1.5,5.9-3,9-4.4c3-1.4,6.1-2.7,9.2-3.9c3.1-1.2,6.3-2.3,9.4-3.3c3.2-1,6.4-1.8,9.6-2.6
		c3.2-0.7,6.5-1.3,9.8-1.7c1.6-0.2,3.3-0.3,4.9-0.4l2.5-0.1l2.5,0l2.5,0l0.6,0l0.6,0l1.2,0.1c1.7,0.1,3.3,0.1,5,0.3l2.5,0.2
		c0.2,0,0.4,0,0.6,0.1l0.6,0.1l1.2,0.2l2.5,0.3l2.4,0.4l1.2,0.2c0.2,0,0.4,0.1,0.6,0.1l0.6,0.1l2.4,0.6c0.8,0.2,1.6,0.4,2.4,0.6
		l1.2,0.3c0.4,0.1,0.8,0.2,1.2,0.4c1.6,0.5,3.2,1,4.7,1.6l1.2,0.4l0.6,0.2l0.6,0.2l2.3,1c0.8,0.3,1.5,0.7,2.3,1l1.1,0.5l1.1,0.5
		c0.8,0.4,1.5,0.7,2.3,1.1l2.2,1.1c3,1.5,6,3.1,9,4.6l1.1,0.6l0.6,0.3l0.5,0.3c0.7,0.4,1.5,0.8,2.2,1.2c0.7,0.4,1.4,0.8,2.1,1.3
		c0.7,0.4,1.3,0.9,1.8,1.4c0.6,0.5,1,1,1.3,1.5c0.1,0.2,0.2,0.4,0.2,0.6c0,0.2,0,0.4,0,0.6c-0.1,0.4-0.3,1.1-0.7,1.8
		c-0.4,0.7-0.8,1.5-1.2,2.3c-0.8,1.7-1.4,3.6-1.6,5.6c-0.1,1-0.1,2,0,3c0.1,0.9,0.2,1.7,0.4,2.5c0,0,0,0,0,0.1c0,0.2,0,0.4,0,0.6
		c0,0.4-0.1,0.9-0.1,1.3c0,0.2-0.1,0.4-0.1,0.7c0,0.2-0.1,0.4-0.1,0.7c-0.1,0.4-0.2,0.9-0.4,1.3l-0.1,0.3c0,0.1-0.1,0.2-0.1,0.3
		l-0.1,0.3c0,0.1-0.1,0.2-0.1,0.3l-0.2,0.3c-0.1,0.1-0.1,0.2-0.2,0.3c-0.1,0.2-0.2,0.4-0.4,0.6c-0.2,0.4-0.5,0.8-0.8,1.1l-0.5,0.5
		l-0.5,0.5c-0.2,0.2-0.4,0.3-0.5,0.5c-0.1,0.1-0.2,0.2-0.3,0.2l-0.3,0.2c-0.4,0.3-0.8,0.6-1.2,0.8c-0.2,0.1-0.4,0.2-0.6,0.4
		l-0.3,0.2c-0.1,0.1-0.2,0.1-0.3,0.2l-0.7,0.3l-0.7,0.3c-0.5,0.2-1,0.3-1.4,0.5c-0.2,0.1-0.5,0.1-0.7,0.2l-0.7,0.2
		c-0.5,0.1-1,0.2-1.5,0.3l-1.5,0.2l1.6,0.1c0.5,0,1,0,1.6,0l0.8,0c0.3,0,0.5,0,0.8,0c0.5-0.1,1.1-0.1,1.6-0.2l0.8-0.1l0.8-0.2
		c0.1,0,0.3-0.1,0.4-0.1l0.4-0.1c0.3-0.1,0.5-0.2,0.8-0.2c0.5-0.2,1-0.4,1.6-0.6l0.4-0.2c0.1-0.1,0.2-0.1,0.4-0.2
		c0.2-0.1,0.5-0.3,0.7-0.4l0.7-0.5l0.7-0.5c0.5-0.4,0.9-0.7,1.3-1.1c0.2-0.2,0.4-0.4,0.6-0.6c0.1-0.1,0.2-0.2,0.3-0.3l0.3-0.3
		c0.1-0.1,0.2-0.2,0.3-0.3l0.3-0.4c0.1-0.1,0.2-0.2,0.3-0.4l0.2-0.4c0.3-0.5,0.6-1,0.9-1.5c0.1-0.3,0.3-0.5,0.4-0.8
		c0.1-0.3,0.2-0.5,0.3-0.8c0.2-0.6,0.4-1.1,0.6-1.7c0.1-0.3,0.2-0.6,0.2-0.9c0-0.2,0.1-0.3,0.1-0.5c0-0.1,0-0.2,0-0.3l0-0.1l0-0.1
		l0-0.1l-0.1-0.8v0c-0.5-1.4-0.8-2.8-0.9-4.1c0-0.3,0-0.7,0-1c0-0.3,0.1-0.7,0.1-1c0.1-0.7,0.3-1.4,0.6-2.1c0.3-0.7,0.6-1.5,0.9-2.3
		c0.2-0.4,0.3-0.9,0.5-1.4c0.2-0.5,0.3-1.1,0.3-1.7C257.7,36.9,257.7,36.2,257.5,35.6z M250.7,51.8
		C250.7,51.8,250.7,51.8,250.7,51.8L250.7,51.8C250.7,51.9,250.7,51.9,250.7,51.8c0,0.1,0,0.2,0,0.2c0,0,0,0,0,0L250.7,51.8z
		 M250.8,52.6L250.8,52.6L250.8,52.6L250.8,52.6z"/>
</g>
<g id="Слой_3">
	<rect x="0" y="41.5" class="st4" width="1067.7" height="248.4"/>
	<text transform="matrix(1 0 0 1 -1.274011e-02 82.2699)" class="st3 st5 st6">MersBen</text>
</g>
</svg>
