<?xml version="1.0" encoding="utf-8"?>
<!-- Generator: Adobe Illustrator 26.0.0, SVG Export Plug-In . SVG Version: 6.00 Build 0)  -->
<svg version="1.1" xmlns="http://www.w3.org/2000/svg" xmlns:xlink="http://www.w3.org/1999/xlink" x="0px" y="0px"
	 viewBox="0 0 244.4 60" style="enable-background:new 0 0 244.4 60;" xml:space="preserve">
<style type="text/css">
	.st0{display:none;}
	.st1{display:inline;fill:#212121;}
	.st2{display:inline;}
	.st3{fill:#E8E7E7;}
	.st4{display:inline;fill:#E8E7E7;}
</style>
<g id="Background" class="st0">
	<rect id="XMLID_574_" x="-26.8" y="-28" class="st1" width="2000" height="2000"/>
</g>
<g id="Layer_1" class="st0">
	<g id="XMLID_1584_" class="st2">
		<g id="XMLID_655_">
			<g id="XMLID_658_">
				<path id="XMLID_660_" class="st3" d="M603.4,39.3c0,0-6.5-3.8-16.4,2.2c-7.7,4.7-19.4-2.7-36.6-6.4
					c-17.5-3.8-45.8-0.9-66.9,17.2c0,0-4.7-0.3-9.8-0.8c-12.6-1.2-34.4-2.7-43.5,3.3c-8.3,5.5-5.4,12.5-5.4,12.5s2.7-13,36.7-12.2
					C497.6,56,541,65.6,567.6,52c-1,0.5-13.6,4.3-31.5,4.1c-20.3-0.2-38.4-2-45.5-2.8c0,0,27.4-21.8,63.3-12.3
					c28.9,7.6,41.2,11.5,44.6,19.1c0,0-0.1-10.2-11.7-13c0.7-0.3,1.5-0.6,2.2-1.1C595.2,42.2,598.3,39,603.4,39.3z"/>
				<path id="XMLID_659_" class="st3" d="M567.6,52c0.4-0.2,0.5-0.3,0.5-0.3C568,51.9,567.8,52,567.6,52z"/>
			</g>
			<path id="XMLID_656_" class="st3" d="M556.9,66.9c8.7,0,15.8,7.1,15.8,15.8c0,1.8-0.3,3.6-0.9,5.2c1.6-2.4,2.6-5.3,2.6-8.4
				c0-8.2-6.7-14.9-14.9-14.9c-4.2,0-8,1.7-10.7,4.5C551.1,67.7,553.9,66.9,556.9,66.9z"/>
		</g>
		<path id="XMLID_755_" class="st3" d="M885.2,1465.6c-0.4,0.4-0.8,0.8-1.2,1.2c-0.5,0.4-0.9,0.9-1.4,1.4c-4.1,4-10.2,9.6-18.8,16.1
			c-8.5,6.5-19.4,13.8-32.7,20.7c-13.3,7-29.2,13.6-47.2,18.9c-18,5.3-38.3,9.4-60.2,11.3c-1.4,0.1-2.7,0.2-4.1,0.3
			c-1.4,0.1-2.8,0.2-4.2,0.3c-1.4,0.1-2.8,0.2-4.2,0.2c-1.4,0.1-2.8,0.1-4.3,0.2c-2.8,0.1-5.7,0.2-8.6,0.3c-2.9,0-5.8,0-8.7,0
			c-11.7-0.1-23.8-0.5-36.2-1.7c-0.8-0.1-1.5-0.1-2.3-0.2c-0.8-0.1-1.6-0.1-2.3-0.2c-1.6-0.2-3.1-0.3-4.7-0.5
			c-3.1-0.3-6.3-0.6-9.4-1.1c-3.2-0.4-6.3-0.8-9.5-1.2c-3.2-0.5-6.4-0.9-9.6-1.4c-12.9-2-26.1-4.4-39.4-7.2
			c-13.4-2.8-27-5.9-40.8-9.2c-13.8-3.3-27.8-6.9-42-10.5c-28.4-7.3-55.9-14.8-82.5-22.3c-13.3-3.8-26.3-7.6-39.1-11.4
			c-12.8-3.8-25.4-7.5-37.9-10.9c-12.5-3.4-24.8-6.5-36.9-9.2c-12.1-2.6-24-4.8-35.6-6.3c-2.9-0.4-5.8-0.7-8.6-1
			c-1.4-0.2-2.9-0.3-4.3-0.4c-1.4-0.1-2.8-0.3-4.2-0.4c-0.7-0.1-1.4-0.1-2.1-0.2c-0.7,0-1.4-0.1-2.1-0.1c-1.4-0.1-2.8-0.2-4.2-0.2
			c-1.4-0.1-2.8-0.2-4.1-0.2c-1.4-0.1-2.7-0.1-4.1-0.1c-2.7,0-5.4-0.1-8.1-0.1c-2.7,0-5.3,0.1-7.9,0.1c-2.6,0-5.2,0.2-7.7,0.3
			c-1.3,0.1-2.5,0.1-3.8,0.2c-0.6,0-1.3,0.1-1.9,0.1c-0.6,0.1-1.2,0.1-1.9,0.2c-2.5,0.2-4.9,0.4-7.3,0.6c-0.6,0.1-1.2,0.1-1.8,0.2
			c-0.6,0.1-1.2,0.1-1.8,0.2c-1.2,0.1-2.4,0.3-3.5,0.4c-1.2,0.1-2.3,0.3-3.5,0.4c-0.6,0.1-1.1,0.1-1.7,0.2c-0.6,0.1-1.1,0.2-1.7,0.3
			c-2.5,0.3-5,0.7-7.5,1.1h0c0,0-31.7,3.6-62.5,14.6c15.3-8.7,36-17,36.2-17.1c47.2-16.9,120.6-32.2,222.8-24.2
			c0,0,47.1-56,149.4-50.8s230.6,60.1,256,78.8c0,0-68.1,59.1-320.2-4.7c0,0,147.1,59.7,264,52.8c130.9-7.8,178.2-97.7,178.2-97.7
			c-41.2,20.5-104,4.3-177.2-17.1c-62.6-18.2-110.3-39.5-195-39.5c-43.1,0-87.1,5.1-124.3,26.9c-23.3,13.7-38.5,27-38.5,27
			s-207.7-5.6-281.6,82c0,0,2.8-0.9,8.3-2.7c0.7-0.2,1.4-0.5,2.2-0.7c0.8-0.2,1.6-0.5,2.4-0.7c1.7-0.5,3.5-1,5.5-1.6
			c2-0.6,4.2-1.1,6.5-1.7c1.2-0.3,2.3-0.6,3.6-0.9c0.6-0.2,1.2-0.3,1.9-0.5c0.6-0.2,1.3-0.3,1.9-0.4c2.6-0.6,5.4-1.2,8.3-1.9
			c2.9-0.6,6-1.2,9.2-1.8c0.4-0.1,0.8-0.2,1.2-0.2c0.4-0.1,0.8-0.1,1.2-0.2c0.8-0.1,1.7-0.3,2.5-0.4c1.7-0.3,3.4-0.6,5.1-0.8
			c1.7-0.3,3.5-0.5,5.3-0.8c1.8-0.2,3.7-0.5,5.5-0.7c0.9-0.1,1.9-0.2,2.8-0.3c1-0.1,1.9-0.2,2.9-0.3c1.9-0.2,3.9-0.4,5.9-0.6
			c2-0.1,4.1-0.3,6.1-0.4c2.1-0.1,4.2-0.3,6.3-0.4c2.1-0.1,4.3-0.2,6.5-0.3c0.5,0,1.1,0,1.6-0.1c0.6,0,1.1,0,1.7,0
			c1.1,0,2.2,0,3.4,0c1.1,0,2.3,0,3.4,0c0.6,0,1.1,0,1.7,0c0.6,0,1.1,0,1.7,0c2.3,0,4.6,0.1,7,0.1c0.6,0,1.2,0,1.8,0
			c0.6,0,1.2,0.1,1.8,0.1c1.2,0.1,2.4,0.1,3.6,0.2c2.4,0.1,4.8,0.2,7.3,0.4c2.5,0.2,4.9,0.4,7.4,0.6c2.5,0.2,5,0.6,7.6,0.9
			c1.3,0.2,2.6,0.3,3.8,0.5c1.3,0.2,2.6,0.4,3.9,0.6c1.3,0.2,2.6,0.4,3.9,0.6c0.7,0.1,1.3,0.2,2,0.3c0.7,0.1,1.3,0.2,2,0.3
			c1.3,0.2,2.6,0.5,3.9,0.7c1.3,0.2,2.6,0.5,4,0.7c2.7,0.5,5.3,1.1,8,1.6c10.8,2.3,21.9,5.2,33.3,8.5c11.4,3.3,23,7.1,35,11.1
			c12,4,24.3,8.4,37,12.7c12.7,4.4,25.8,8.8,39.1,13c26.7,8.5,54.6,16.6,83.4,24c14.4,3.7,28.6,7.2,42.8,10.3
			c14.2,3.2,28.3,6,42.2,8.5c14,2.4,27.8,4.4,41.4,5.9c3.4,0.3,6.8,0.7,10.2,1c3.4,0.3,6.8,0.5,10.1,0.8c3.3,0.3,6.7,0.4,10,0.6
			c1.7,0.1,3.3,0.2,5,0.2c0.8,0,1.6,0.1,2.5,0.1c0.8,0,1.6,0,2.5,0.1c13.1,0.4,26,0.1,38.5-0.7c3.1-0.2,6.2-0.5,9.3-0.7
			c3.1-0.3,6.1-0.7,9.1-1c1.5-0.2,3-0.3,4.5-0.5c1.5-0.2,3-0.4,4.5-0.6c1.5-0.2,3-0.4,4.4-0.7c1.5-0.2,2.9-0.5,4.4-0.7
			c23.2-4,44.2-10.3,62.6-17.9c18.4-7.6,34.2-16.4,47.1-25.3c6.5-4.5,12.3-8.9,17.4-13.2c1.3-1.1,2.5-2.2,3.7-3.2
			c1.2-1.1,2.4-2.1,3.5-3.1c1.1-1,2.2-2.1,3.3-3c1-1,2-2,3-3c7.7-7.8,13.1-14.4,16.5-18.9c0.4-0.6,0.8-1.1,1.2-1.6
			c0.4-0.5,0.7-1,1-1.4c0.6-0.9,1.2-1.6,1.6-2.2c0.8-1.2,1.3-1.8,1.3-1.8s-0.5,0.5-1.6,1.6C886.6,1464.2,885.9,1464.8,885.2,1465.6z
			"/>
		<g id="XMLID_814_">
			<path id="XMLID_817_" class="st3" d="M1209.4,506.7c-20.8,0-39.2,10.7-49.8,27c10.9-11.8,26.4-19.2,43.8-19.2
				c32.8,0,59.4,26.6,59.4,59.4c0,12-3.6,23.1-9.7,32.5c9.7-10.6,15.7-24.7,15.7-40.2C1268.8,533.3,1242.2,506.7,1209.4,506.7z"/>
			<path id="XMLID_816_" class="st3" d="M1869.2,425c-4-0.3-8.1-0.5-12.3-0.8c-0.9-0.1-1.9-0.2-2.8-0.2c-0.7-0.1-1.5-0.1-2.2-0.2
				c-1.5-0.2-3-0.3-4.5-0.5c-1.5-0.2-3-0.3-4.5-0.5c-1.5-0.2-3-0.4-4.6-0.5c-3.1-0.3-6.2-0.8-9.4-1.2c-12.7-1.6-26-3.7-39.8-6.2
				c-27.8-4.9-57.9-11.3-90.1-18.1c-32.3-6.8-66.7-14-103.3-19.4c-18.3-2.7-37.1-4.8-56.4-6.2c-19.3-1.4-39-1.8-59-1.1
				c-9,0.3-17.9,0.9-26.7,1.7c-8.8,0.8-17.6,1.8-26.3,3.1c-2.2,0.3-4.3,0.7-6.5,1c-1.1,0.2-2.2,0.3-3.2,0.5
				c-1.1,0.2-2.1,0.4-3.2,0.6c-2.1,0.4-4.3,0.8-6.4,1.2c-2.1,0.4-4.2,0.9-6.4,1.3c-1.1,0.2-2.1,0.4-3.2,0.7
				c-1.1,0.2-2.1,0.5-3.1,0.7c-2.1,0.5-4.2,0.9-6.3,1.4c-4.2,1-8.3,2-12.4,3.1c-8.2,2.1-16.2,4.6-24.2,7.2c-2,0.7-3.9,1.3-5.9,2
				c-1,0.3-2,0.7-2.9,1c-1,0.3-1.9,0.7-2.9,1c-1.9,0.7-3.9,1.4-5.8,2.1c-1.9,0.7-3.9,1.5-5.8,2.2c-7.7,3-15,6.3-22.2,9.6
				c-7.1,3.3-14,6.5-20.9,9.7c-6.8,3.2-13.5,6.1-20.1,8.9c-3.3,1.4-6.6,2.6-9.9,3.9c-3.3,1.1-6.6,2.3-9.8,3.3
				c-0.8,0.3-1.6,0.5-2.4,0.8c-0.8,0.3-1.6,0.5-2.4,0.7c-1.6,0.4-3.2,0.9-4.9,1.3c-1.6,0.4-3.2,0.7-4.9,1.1l-1.2,0.3l-1.2,0.2
				c-0.8,0.2-1.6,0.3-2.4,0.5c-6.5,1.2-13.1,2-19.7,2.6c-2.4,0.2-4.8,0.5-7.2,0.7h0l0,0c-4.2,0.4-8.5,0.8-12.6,1.2
				c-3.3,0.3-6.6,0.7-9.8,1.1c-3.3,0.4-6.5,0.9-9.7,1.4c-0.8,0.1-1.6,0.2-2.4,0.4c-0.8,0.1-1.6,0.2-2.4,0.4
				c-1.6,0.3-3.1,0.6-4.7,0.9c-1.5,0.3-3.1,0.6-4.6,0.9c-0.8,0.2-1.5,0.3-2.3,0.5c-0.8,0.2-1.5,0.4-2.3,0.5c-3,0.7-6,1.4-8.9,2.2
				c-2.9,0.8-5.8,1.7-8.6,2.5c-1.4,0.4-2.8,0.8-4.2,1.2c-1.4,0.5-2.7,0.9-4.1,1.4c-1.4,0.5-2.7,0.9-4,1.4c-0.7,0.2-1.3,0.5-2,0.7
				c-0.7,0.2-1.3,0.4-2,0.7c-2.6,1-5.2,2-7.7,3c-0.6,0.2-1.3,0.5-1.9,0.7c-0.6,0.2-1.3,0.5-1.9,0.8c-1.2,0.5-2.4,1.1-3.6,1.6
				c-2.4,1.1-4.8,2.1-7.1,3.1c-2.3,1.1-4.6,2.2-6.8,3.3c-1.1,0.5-2.2,1.1-3.3,1.6c-1.1,0.5-2.1,1.1-3.2,1.7
				c-2.1,1.1-4.2,2.3-6.2,3.4c-16.2,9.1-29.1,18.4-39.1,26.6c-0.6,0.5-1.3,1-1.9,1.5c-0.6,0.5-1.2,1-1.8,1.5c-1.2,1-2.3,2-3.3,2.9
				c-1.1,0.9-2.1,1.9-3.1,2.7c-1,0.9-2,1.7-2.9,2.6c-1.8,1.7-3.5,3.3-5,4.8c-1.5,1.5-2.9,2.7-4.1,4c-4.7,4.9-7.1,7.5-7.1,7.5
				s2.7-2.3,7.9-6.7c1.3-1.1,2.8-2.3,4.4-3.5c1.6-1.3,3.4-2.7,5.4-4.2c1-0.8,2-1.5,3.1-2.3c1.1-0.8,2.2-1.6,3.3-2.4
				c1.1-0.8,2.3-1.7,3.6-2.6c0.6-0.4,1.2-0.9,1.9-1.3c0.6-0.4,1.3-0.9,2-1.3c10.6-7.1,24-15.1,40.4-22.6c2.1-0.9,4.1-1.8,6.3-2.8
				c1.1-0.5,2.1-1,3.2-1.4c1.1-0.4,2.2-0.9,3.3-1.3c2.2-0.9,4.5-1.8,6.8-2.7c2.3-0.8,4.7-1.7,7.1-2.5c1.2-0.4,2.4-0.8,3.6-1.3
				c0.6-0.2,1.2-0.4,1.8-0.6c0.6-0.2,1.2-0.4,1.9-0.6c2.5-0.8,5-1.5,7.6-2.3c0.6-0.2,1.3-0.4,1.9-0.5c0.7-0.2,1.3-0.3,2-0.5
				c1.3-0.3,2.6-0.7,4-1c1.3-0.3,2.7-0.7,4-1c1.3-0.3,2.7-0.6,4.1-0.9c2.7-0.6,5.5-1.2,8.3-1.8c2.8-0.5,5.7-1,8.6-1.5
				c0.7-0.1,1.4-0.3,2.2-0.4c0.7-0.1,1.5-0.2,2.2-0.3c1.5-0.2,2.9-0.4,4.4-0.6c1.5-0.2,3-0.4,4.5-0.6c0.7-0.1,1.5-0.2,2.3-0.2
				c0.8-0.1,1.5-0.1,2.3-0.2c3-0.3,6.1-0.6,9.2-0.8c3.1-0.2,6.3-0.3,9.5-0.5c2-0.1,4-0.1,6.1-0.2c3.8,0,26.2,0.4,46.7,3.4
				c8.6,1.2,18.2,2.5,28.8,4.1c5.3,0.8,10.8,1.6,16.5,2.5c5.7,0.9,11.6,1.8,17.6,2.7c12.1,1.9,24.9,3.8,38.1,5.9
				c6.6,1,13.4,2,20.2,3c3.4,0.5,6.9,1,10.4,1.4c3.5,0.5,7,0.9,10.5,1.4c14.1,1.8,28.4,3.4,42.9,4.4c14.5,1.1,29,1.6,43.3,1.4
				c1.8,0,3.6,0,5.4-0.1c1.8-0.1,3.6-0.1,5.3-0.2c3.6-0.1,7.1-0.4,10.6-0.6c0.9-0.1,1.8-0.1,2.6-0.2c0.9-0.1,1.7-0.2,2.6-0.2
				c1.7-0.2,3.5-0.3,5.2-0.5c1.7-0.1,3.5-0.4,5.2-0.6c1.7-0.2,3.4-0.4,5.1-0.6c1.7-0.2,3.4-0.5,5.1-0.7c1.7-0.3,3.3-0.5,5-0.8
				l1.2-0.2l1.2-0.2c0.8-0.2,1.7-0.3,2.5-0.4c1.7-0.3,3.3-0.6,4.9-0.9l1.2-0.2l1.2-0.2c0.8-0.2,1.6-0.3,2.3-0.5
				c1.6-0.3,3.1-0.7,4.6-1l1.2-0.3l0.7-0.1l0.6-0.1c0.8-0.2,1.6-0.4,2.4-0.6c1.6-0.4,3.1-0.8,4.7-1.2c6.1-1.7,12-3.8,17.5-6.1
				c5.5-2.3,10.7-4.9,15.6-7.7c4.8-2.8,9.2-5.8,13.2-8.8c4-3.1,7.6-6.3,10.8-9.4c3.2-3.2,6-6.3,8.4-9.3c2.4-3,4.5-5.9,6.2-8.5
				c3.5-5.3,5.7-9.8,7.2-12.8c0.7-1.5,1.2-2.7,1.6-3.5c0.3-0.8,0.5-1.2,0.5-1.2s-0.2,0.4-0.7,1.1c-0.5,0.7-1.2,1.8-2.1,3.2
				c-1.9,2.8-4.8,6.7-8.8,11.4c-2,2.3-4.4,4.8-7,7.4c-2.7,2.6-5.7,5.2-9,7.8c-6.7,5.2-14.8,10.3-24.3,14.6
				c-9.4,4.3-20.1,7.7-31.8,9.9c-1.5,0.3-2.9,0.6-4.4,0.8c-0.7,0.1-1.5,0.2-2.2,0.4l-0.6,0.1c-0.1,0,0,0,0,0l-0.1,0l-0.3,0l-1.2,0.2
				c-1.6,0.2-3.1,0.4-4.7,0.6c-0.8,0.1-1.6,0.2-2.4,0.3l-1.2,0.2l-1.2,0.1c-1.6,0.2-3.1,0.3-4.7,0.5c-0.8,0.1-1.6,0.2-2.4,0.3
				l-1.2,0.1l-1.2,0.1c-3.2,0.2-6.5,0.6-9.7,0.8c-1.6,0.1-3.3,0.2-4.9,0.3c-1.6,0.1-3.3,0.2-5,0.2c-1.7,0.1-3.3,0.1-5,0.2
				c-0.8,0-1.7,0.1-2.5,0.1c-0.8,0-1.7,0-2.5,0c-3.4,0-6.8,0.1-10.2,0c-1.7,0-3.4,0-5.1-0.1c-1.7,0-3.4-0.1-5.2-0.2
				c-13.8-0.4-27.8-1.5-41.8-2.9c-14-1.5-28-3.3-41.9-5.4c-3.5-0.5-6.9-1-10.3-1.5c-3.4-0.5-6.8-1-10.2-1.6
				c-6.8-1.1-13.5-2.1-20.1-3.1c-6.6-1-13.1-2-19.5-3c-6.4-1-12.6-1.9-18.7-2.8c-3.1-0.4-6.1-0.9-9-1.3c-3-0.4-5.9-0.8-8.8-1.2
				c-5.8-0.7-11.3-1.5-16.7-2.1c-0.8-0.1-1.6-0.2-2.4-0.3c1.1-0.4,2.2-0.8,3.3-1.2c7.2-2.6,14.3-5.4,21.4-8.4
				c7-2.9,14.1-5.9,21.3-8.9c7.1-2.9,14.2-5.8,21.4-8.4c1.8-0.6,3.6-1.3,5.4-1.9c1.8-0.6,3.7-1.2,5.6-1.8c0.9-0.3,1.9-0.6,2.8-0.9
				c0.9-0.3,1.9-0.6,2.8-0.9c1.9-0.6,3.8-1.2,5.7-1.8c7.6-2.2,15.3-4.4,23.1-6.3c3.9-1,7.9-1.8,11.8-2.7c2-0.4,4-0.8,6-1.2
				c1-0.2,2-0.4,3-0.6c1-0.2,2-0.4,3-0.6c2-0.4,4-0.7,6-1.1c2-0.3,4.1-0.7,6.1-1c1-0.2,2-0.3,3.1-0.5c1-0.2,2-0.3,3.1-0.5
				c2-0.3,4.1-0.6,6.2-0.9c8.2-1.1,16.6-2,25-2.8c8.4-0.7,16.9-1.2,25.4-1.5c19.1-0.6,37.9-0.3,56.5,0.7c18.6,1.1,36.9,2.8,54.8,5
				c35.8,4.4,70.2,10.3,102.7,15.8c32.5,5.4,63.3,10.3,91.7,13.5c14.2,1.6,27.9,2.9,40.8,3.6c3.2,0.2,6.4,0.4,9.6,0.5
				c1.6,0.1,3.1,0.1,4.7,0.2c1.6,0.1,3.1,0.1,4.6,0.2c1.5,0,3.1,0.1,4.6,0.1c0.8,0,1.5,0,2.3,0l0.6,0l0.3,0l0.2,0l0.6,0
				c1.7,0,3.4-0.1,5.1-0.1c0.8,0,1.6,0,2.3,0c-2.6,4.3-9.2,17.9-7.3,38.6c1.9,21.3,12.8,35.1,17.4,47.5c3.1,6.7,2.9,11.2,2.7,13.7
				c0,0,0.1-0.2,0.2-0.7c0.1-0.2,0.2-0.5,0.3-0.9c0.3-1.1,0.7-2.7,0.7-4.8c0.1-2.2-0.1-4.9-0.7-8c-0.6-3.1-1.5-6.7-2.8-10.7
				c-0.3-1-0.7-2-1-3c-0.3-1-0.7-2.1-1-3.2c-0.7-2.2-1.3-4.5-1.9-6.9c-0.6-2.4-1.1-5-1.7-7.6c-0.5-2.7-0.9-5.4-1.3-8.3
				c-0.3-2.9-0.6-5.9-0.6-8.9c0-0.8,0-1.5,0-2.3c0-0.8,0-1.5,0.1-2.3c2.6-25.3,20.9-42.3,20.9-42.3
				C1879.3,425.6,1869.2,425,1869.2,425z"/>
			<path id="XMLID_815_" class="st3" d="M1712.3,460.8c-16.2-1.8-60.4,0.3-83.9,44.1c-9,16.8-9.4,37.3-7.9,52.4l-294.3,21.2h298
				h27.6l0,0c-0.3-0.5-0.7-1.1-1-1.6c-0.1-0.2-0.2-0.3-0.3-0.5c-5.5-9.5-8.6-20.6-8.6-32.4c0-35.9,29.1-65,65-65
				c35.9,0,65,29.1,65,65c0,29.8-20,54.9-47.4,62.6c33.6-6.6,59-35.1,59-70.7C1783.5,510.4,1767.1,466.8,1712.3,460.8z"/>
		</g>
		<g id="XMLID_1040_">
			<g id="XMLID_1042_">
				<path id="XMLID_1043_" class="st3" d="M1684.6,1457.8c-14-1.5-52.3,0.2-72.6,38.1c-7.8,14.5-8.1,32.3-6.9,45.4l-254.7,18.4
					h257.9h23.9l0,0c-0.3-0.5-0.6-0.9-0.9-1.4c-0.1-0.1-0.2-0.3-0.2-0.4c-4.7-8.2-7.5-17.8-7.5-28c0-31.1,25.2-56.2,56.2-56.2
					c31.1,0,56.2,25.2,56.2,56.2c0,25.8-17.3,47.5-41,54.2c29.1-5.7,51.1-30.4,51.1-61.2C1746.3,1500.7,1732,1463,1684.6,1457.8z"/>
			</g>
			<path id="XMLID_1041_" class="st3" d="M1835.3,1441.2c2.9,4.7,4,11.1,4.5,16.8c0.6,6.6,0.5,13.3,0.5,19.9c0.1,0,0.1,0,0.2,0.1
				c5.7-7.3,9.2-13.6,11.3-18.7c3.9-9.5,3-20.4-2.9-28.7c-2.8-3.9-6.4-7.2-11.2-9.4c-11.8-5.5-24.2-9.9-36-15.4
				c-10.9-5-21.6-10.3-32.3-15.8c-40.3-20.6-79.9-42.8-123.4-56.1c-51-15.5-105.1-19.7-157.8-11.9c-44.7,6.7-88.1,21.6-128.6,41.3
				c-13.8,6.7-27.4,14.1-40.5,22.1c-6.1,3.7-12.8,7.4-18.4,12c-179.4-2.2-262.9,87.4-262.9,87.4c52.5-35.3,117.5-59.6,206.1-69.2
				c64.9-7,120.2,2.4,156.3,6.1c41.7,4.3,85.9,9.8,128.6,8.8c86-2.1,129.2-42,129.2-42c-68.3,34.8-168,24.6-255.9,15.6
				c-24.8-2.5-48.7-5-70.5-6.2c4.5-2.7,9.1-5.3,13.7-7.8c49.1-27.1,103.3-47,159.5-53.1c65.8-7.2,131.4,6.5,191,34.5
				c27,12.7,53,27.3,79.7,40.5c15.1,7.5,30.5,14.5,46.1,20.9c3.1,1.3,7.2,2.7,9.4,3.9C1832.7,1437.8,1834.2,1439.3,1835.3,1441.2z"
				/>
		</g>
		<g id="XMLID_1080_">
			<path id="XMLID_1082_" class="st3" d="M298.4,125c1-0.5-10.8-0.4-30.1-3.2c-31.5-4.6-84.1-30.5-128.3,8c0,0-56,7.5-67.2,22.5
				c-8.3,11.1,4.6,14,0,21c0,0,8.3-2,4.6-8.8c-3.7-6.8,6.8-14.7,30.5-21.5c19.2-5.5,37-8.4,37-8.4s9.1-14.2,38.7-17.9
				c29.6-3.7,52.7,11.3,66,14.8c0,0-45,18-96.9,6.3C152.9,137.8,210.4,165.4,298.4,125z"/>
			<path id="XMLID_1081_" class="st3" d="M175.2,151.1c0,0,15.5,6.4,44.6,4.4c9.7-0.7,23.6-2.8,36.1-6.2
				c41-11.4,40.9,19.1,40.9,19.1s-3.5-12-16.9-14.6c-15.1-2.9-29.2,5.5-56.4,7.4C193.4,163.1,175.2,151.1,175.2,151.1z"/>
		</g>
		<path id="XMLID_1096_" class="st3" d="M516.2,122c-0.2-0.6-0.5-1.2-0.8-1.7c-0.7-1-1.4-1.6-2.2-2.2c-0.7-0.6-1.5-1.1-2.3-1.5
			c-0.8-0.5-1.5-0.9-2.3-1.3c-1.5-0.8-3.1-1.5-4.6-2.2l-2.3-1.1l-2.3-1.1c-1.5-0.7-3-1.5-4.5-2.2c-1.5-0.7-3-1.5-4.6-2.2l-1.1-0.5
			l-1.2-0.5c-0.8-0.3-1.5-0.7-2.3-1l-2.4-1l-0.6-0.2l-0.6-0.2l-1.2-0.5c-1.6-0.6-3.2-1.1-4.8-1.7c-0.4-0.1-0.8-0.2-1.2-0.4l-1.2-0.4
			c-0.8-0.2-1.6-0.5-2.5-0.7l-2.5-0.6l-0.6-0.1c-0.2,0-0.4-0.1-0.6-0.1l-1.3-0.2l-2.5-0.5l-2.5-0.4l-1.3-0.2l-0.6-0.1
			c-0.2,0-0.4,0-0.6-0.1l-2.5-0.2c-1.7-0.2-3.4-0.3-5.1-0.4l-1.3-0.1l-0.6,0l-0.6,0l-2.5,0l-2.6,0l-2.6,0.1
			c-1.7,0.1-3.4,0.2-5.1,0.3c-3.4,0.3-6.8,0.8-10.2,1.5l-2.5,0.5c-0.8,0.2-1.7,0.4-2.5,0.6c-0.8,0.2-1.7,0.4-2.5,0.6
			c-0.8,0.2-1.7,0.4-2.5,0.7c-3.3,0.9-6.6,1.9-9.8,3c-3.2,1.1-6.4,2.3-9.6,3.6c-3.2,1.3-6.3,2.6-9.4,4c-1.5,0.7-3.1,1.4-4.6,2.2
			c-0.8,0.4-1.5,0.8-2.3,1.1c-0.5,0.2-0.9,0.5-1.4,0.7c-0.1,0-0.3,0-0.4,0c-0.6,0-1.3-0.1-1.9-0.1c-0.6,0-1.3-0.1-1.9-0.1
			c-1.3-0.1-2.6-0.1-3.8-0.1c-2.5,0-5.1,0-7.6,0.1c-1.2,0-2.5,0.1-3.7,0.2c-1.2,0.1-2.5,0.2-3.7,0.3c-2.4,0.2-4.8,0.5-7.1,0.9
			c-2.3,0.4-4.6,0.8-6.8,1.4c-2.2,0.5-4.3,1.2-6.3,1.9c-2,0.7-3.9,1.5-5.7,2.5c-1.8,0.9-3.4,2-4.9,3.2c-0.7,0.6-1.4,1.2-2,1.9
			c-0.1,0.1-0.2,0.2-0.2,0.3l-0.1,0.1l-0.1,0.1l-0.1,0.1c-0.1,0.2-0.3,0.3-0.4,0.5c-0.1,0.2-0.3,0.4-0.4,0.5
			c-0.1,0.2-0.3,0.4-0.4,0.5c-0.5,0.7-0.9,1.5-1.2,2.4c-0.3,0.8-0.4,1.7-0.5,2.5c0,0.4,0,0.8,0.1,1.2c0,0.4,0.1,0.7,0.2,1.1
			c0.2,0.7,0.5,1.3,0.7,1.8c0.6,1.1,1.2,1.9,1.6,2.6c0.5,0.7,0.9,1.3,1.1,1.8c0.2,0.5,0.3,0.9,0.3,1.2c0,0.2,0,0.3,0,0.4
			c0,0.1,0,0.1,0,0.1s0,0,0.1-0.1c0.1-0.1,0.1-0.2,0.2-0.3c0.2-0.3,0.3-0.8,0.3-1.5c0-0.7-0.2-1.5-0.5-2.3c-0.3-0.9-0.6-1.8-0.9-2.8
			c-0.3-1-0.5-2-0.3-3c0.1-1,0.5-2.1,1.3-3.2c0.1-0.1,0.2-0.3,0.3-0.4c0.1-0.1,0.2-0.3,0.3-0.4c0.1-0.1,0.2-0.3,0.4-0.4l0.2-0.2
			c0.1-0.1,0.1-0.1,0.2-0.2c0.5-0.5,1.1-1,1.8-1.5c1.3-0.9,2.8-1.8,4.4-2.6c3.3-1.5,7.1-2.6,11.3-3.4c2.1-0.4,4.2-0.7,6.5-1
			c2.2-0.2,4.5-0.4,6.8-0.6c1.2-0.1,2.3-0.1,3.5-0.1c1.2,0,2.4-0.1,3.6-0.1c2.4,0,4.8,0,7.3,0.1c1.2,0,2.5,0.1,3.7,0.2
			c0.6,0,1.2,0.1,1.9,0.1c0.6,0,1.3,0.1,1.9,0.1c2.5,0.2,5,0.3,7.6,0.5c5.1,0.3,10.1,0.7,15.1,1c2.5,0.2,5,0.4,7.4,0.5
			c2.4,0.2,4.9,0.3,7.2,0.5c4.8,0.3,9.4,0.5,13.8,0.6c2.2,0,4.3,0,6.4,0c2.1,0,4.1-0.1,6-0.3c3.9-0.3,7.4-0.7,10.5-1.4
			c1.5-0.3,3-0.6,4.3-1c1.3-0.3,2.5-0.7,3.6-1.1c2.1-0.7,3.8-1.4,4.9-1.9c0.3-0.1,0.5-0.2,0.7-0.3c0.2-0.1,0.4-0.2,0.5-0.2
			c0.3-0.1,0.4-0.2,0.4-0.2s-0.6,0.2-1.8,0.4c-0.3,0.1-0.6,0.1-1,0.2c-0.4,0.1-0.7,0.2-1.2,0.3c-0.4,0.1-0.9,0.2-1.4,0.3
			c-0.5,0.1-1,0.2-1.5,0.3c-2.2,0.4-4.8,0.7-7.9,1c-1.5,0.1-3.1,0.2-4.9,0.2c-1.7,0-3.5,0-5.4,0c-3.8-0.1-7.8-0.4-12.1-0.7
			c-2.2-0.2-4.4-0.4-6.6-0.6c-2.3-0.2-4.6-0.5-7-0.7c-2.4-0.2-4.8-0.5-7.2-0.7c-2.4-0.2-4.9-0.5-7.4-0.7c-4.1-0.4-8.3-0.7-12.5-1
			c0.2-0.1,0.4-0.2,0.6-0.3c3-1.5,5.9-3,9-4.4c3-1.4,6.1-2.7,9.2-3.9c3.1-1.2,6.3-2.3,9.4-3.3c3.2-1,6.4-1.8,9.6-2.6
			c3.2-0.7,6.5-1.3,9.8-1.7c1.6-0.2,3.3-0.3,4.9-0.4l2.5-0.1l2.5,0l2.5,0l0.6,0l0.6,0l1.2,0.1c1.7,0.1,3.3,0.1,5,0.3l2.5,0.2
			c0.2,0,0.4,0,0.6,0.1l0.6,0.1l1.2,0.2l2.5,0.3l2.4,0.4l1.2,0.2c0.2,0,0.4,0.1,0.6,0.1l0.6,0.1l2.4,0.6c0.8,0.2,1.6,0.4,2.4,0.6
			l1.2,0.3c0.4,0.1,0.8,0.2,1.2,0.4c1.6,0.5,3.2,1,4.7,1.6l1.2,0.4l0.6,0.2l0.6,0.2l2.3,1c0.8,0.3,1.5,0.7,2.3,1l1.1,0.5l1.1,0.5
			c0.8,0.4,1.5,0.7,2.3,1.1l2.2,1.1c3,1.5,6,3.1,9,4.6l1.1,0.6l0.6,0.3l0.5,0.3c0.7,0.4,1.5,0.8,2.2,1.2c0.7,0.4,1.4,0.8,2.1,1.3
			c0.7,0.4,1.3,0.9,1.8,1.4c0.6,0.5,1,1,1.3,1.5c0.1,0.2,0.2,0.4,0.2,0.6c0,0.2,0,0.4,0,0.6c-0.1,0.4-0.3,1.1-0.7,1.8
			c-0.4,0.7-0.8,1.5-1.2,2.3c-0.8,1.7-1.4,3.6-1.6,5.6c-0.1,1-0.1,2,0,3c0.1,0.9,0.2,1.7,0.4,2.5c0,0,0,0,0,0.1c0,0.2,0,0.4,0,0.6
			c0,0.4-0.1,0.9-0.1,1.3c0,0.2-0.1,0.4-0.1,0.7c0,0.2-0.1,0.4-0.1,0.7c-0.1,0.4-0.2,0.9-0.4,1.3l-0.1,0.3c0,0.1-0.1,0.2-0.1,0.3
			l-0.1,0.3c0,0.1-0.1,0.2-0.1,0.3l-0.2,0.3c-0.1,0.1-0.1,0.2-0.2,0.3c-0.1,0.2-0.2,0.4-0.4,0.6c-0.2,0.4-0.5,0.8-0.8,1.1l-0.5,0.5
			l-0.5,0.5c-0.2,0.2-0.4,0.3-0.5,0.5c-0.1,0.1-0.2,0.2-0.3,0.2l-0.3,0.2c-0.4,0.3-0.8,0.6-1.2,0.8c-0.2,0.1-0.4,0.2-0.6,0.4
			l-0.3,0.2c-0.1,0.1-0.2,0.1-0.3,0.2l-0.7,0.3l-0.7,0.3c-0.5,0.2-1,0.3-1.4,0.5c-0.2,0.1-0.5,0.1-0.7,0.2l-0.7,0.2
			c-0.5,0.1-1,0.2-1.5,0.3l-1.5,0.2l1.6,0.1c0.5,0,1,0,1.6,0l0.8,0c0.3,0,0.5,0,0.8,0c0.5-0.1,1.1-0.1,1.6-0.2l0.8-0.1l0.8-0.2
			c0.1,0,0.3-0.1,0.4-0.1l0.4-0.1c0.3-0.1,0.5-0.2,0.8-0.2c0.5-0.2,1-0.4,1.6-0.6l0.4-0.2c0.1-0.1,0.2-0.1,0.4-0.2
			c0.2-0.1,0.5-0.3,0.7-0.4l0.7-0.5l0.7-0.5c0.5-0.4,0.9-0.7,1.3-1.1c0.2-0.2,0.4-0.4,0.6-0.6c0.1-0.1,0.2-0.2,0.3-0.3l0.3-0.3
			c0.1-0.1,0.2-0.2,0.3-0.3l0.3-0.4c0.1-0.1,0.2-0.2,0.3-0.4l0.2-0.4c0.3-0.5,0.6-1,0.9-1.5c0.1-0.3,0.3-0.5,0.4-0.8
			c0.1-0.3,0.2-0.5,0.3-0.8c0.2-0.6,0.4-1.1,0.6-1.7c0.1-0.3,0.2-0.6,0.2-0.9c0-0.2,0.1-0.3,0.1-0.5c0-0.1,0-0.2,0-0.3l0-0.1l0-0.1
			l0-0.1l-0.1-0.8v0c-0.5-1.4-0.8-2.8-0.9-4.1c0-0.3,0-0.7,0-1c0-0.3,0.1-0.7,0.1-1c0.1-0.7,0.3-1.4,0.6-2.1
			c0.3-0.7,0.6-1.5,0.9-2.3c0.2-0.4,0.3-0.9,0.5-1.4c0.2-0.5,0.3-1.1,0.3-1.7C516.5,123.3,516.4,122.6,516.2,122z M509.4,138.2
			C509.4,138.2,509.4,138.2,509.4,138.2L509.4,138.2C509.4,138.3,509.4,138.3,509.4,138.2c0,0.1,0,0.2,0,0.2c0,0,0,0,0,0
			L509.4,138.2z M509.5,139L509.5,139L509.5,139L509.5,139z"/>
	</g>
</g>
<g id="Слой_6" class="st0">
	<g id="XMLID_00000096768875130511789050000001599850234510127285_" class="st2">
		<path id="XMLID_00000124865782464348248550000008515528875994270910_" class="st3" d="M252.1,1.5c0.7-0.3-7.9-0.3-21.9-2.3
			C207.2-4.1,169-23,136.9,5.1c0,0-40.7,5.5-48.8,16.3c-6,8.1,3.3,10.2,0,15.3c0,0,6-1.4,3.4-6.4c-2.7-5,4.9-10.7,22.2-15.6
			c13.9-4,26.9-6.1,26.9-6.1s6.6-10.3,28.2-13c21.5-2.7,38.3,8.2,48,10.7c0,0-32.7,13.1-70.4,4.6C146.3,10.8,188.1,30.8,252.1,1.5z"
			/>
		<path id="XMLID_00000132083402222724071190000017746817495934730384_" class="st3" d="M162.5,20.4c0,0,11.3,4.6,32.4,3.2
			c7-0.5,17.2-2,26.2-4.5c29.8-8.3,29.8,13.9,29.8,13.9s-2.5-8.7-12.3-10.6c-11-2.1-21.2,4-41,5.4C175.7,29.2,162.5,20.4,162.5,20.4
			z"/>
	</g>
</g>
<g id="Слой_7" class="st0">
	<g id="XMLID_00000169516045936913592330000001006418026013930641_" class="st2">
		<g id="XMLID_00000051368488434577563020000003025636060405134740_">
			<path id="XMLID_00000177454618648894779890000017988596256862212783_" class="st3" d="M280.6,28.1c0,0-2.6-1.7-6.5,1
				c-3.1,2.1-7.7-1.2-14.5-2.8c-7-1.7-18.2-0.4-26.6,7.6c0,0-1.9-0.1-3.9-0.4c-5-0.5-11.7,0.1-15.6,2.8c-3.3,2.3-4.5,7.2-4.5,7.2
				s2.9-8.7,15.2-8.4c14.4,0.3,31.6,4.7,42.2-1.4c-0.4,0.2-5.4,1.9-12.5,1.8c-8.1-0.1-15.3-0.9-18.1-1.3c0,0,10.9-9.7,25.2-5.5
				c11.5,3.4,16.4,5.1,17.8,8.5c0,0,0-4.5-4.6-5.8c0.3-0.1,0.6-0.3,0.9-0.5C277.4,29.4,278.6,27.9,280.6,28.1z"/>
			<path id="XMLID_00000124148009044904761050000014484088573802871479_" class="st3" d="M266.4,33.7c0.2-0.1,0.2-0.1,0.2-0.1
				C266.5,33.6,266.4,33.7,266.4,33.7z"/>
		</g>
		<path id="XMLID_00000132768647840203166650000001269350520712925879_" class="st3" d="M262.1,40.3c3.5,0,6.3,3.1,6.3,7
			c0,0.8-0.1,1.6-0.4,2.3c0.6-1.1,1-2.3,1-3.7c0-3.7-2.7-6.6-5.9-6.6c-1.7,0-3.2,0.8-4.3,2C259.8,40.7,260.9,40.3,262.1,40.3z"/>
	</g>
	<path id="XMLID_00000078724513891200298590000000865373706431594662_" class="st4" d="M229,41.2c3.5,0,6.3,3.1,6.3,7
		c0,0.8-0.1,1.6-0.4,2.3c0.6-1.1,1-2.3,1-3.7c0-3.7-2.7-6.6-5.9-6.6c-1.7,0-3.2,0.8-4.3,2C226.7,41.5,227.8,41.2,229,41.2z"/>
</g>
<g id="Слой_5" class="st0">
	<path id="XMLID_00000017517484351896260060000007057532673463783074_" class="st4" d="M317.3,31.4c-0.1-0.4-0.3-0.7-0.4-0.9
		c-0.4-0.5-0.8-0.9-1.2-1.2c-0.4-0.3-0.8-0.6-1.3-0.9c-0.4-0.3-0.9-0.5-1.3-0.7c-0.9-0.4-1.8-0.8-2.6-1.2l-1.3-0.6l-1.3-0.6
		c-0.9-0.4-1.7-0.8-2.6-1.2c-0.9-0.4-1.7-0.8-2.6-1.2l-0.6-0.3l-0.7-0.3c-0.4-0.2-0.9-0.4-1.3-0.6l-1.3-0.6l-0.3-0.1l-0.3-0.1
		l-0.7-0.3c-0.9-0.4-1.8-0.6-2.7-1c-0.2-0.1-0.5-0.1-0.7-0.2l-0.7-0.2c-0.5-0.1-0.9-0.3-1.4-0.4l-1.4-0.3l-0.4-0.1
		c-0.1,0-0.2,0-0.4-0.1l-0.7-0.1l-1.4-0.3l-1.4-0.2l-0.7-0.1l-0.4-0.1c-0.1,0-0.2,0-0.4,0l-1.4-0.1c-1-0.1-1.9-0.1-2.9-0.2l-0.7,0
		l-0.4,0l-0.4,0l-1.4,0l-1.4,0l-1.4,0c-1,0-1.9,0.1-2.9,0.2c-1.9,0.2-3.8,0.5-5.7,0.8l-1.4,0.3c-0.5,0.1-0.9,0.2-1.4,0.3
		c-0.5,0.1-0.9,0.2-1.4,0.3c-0.5,0.1-0.9,0.2-1.4,0.4c-1.9,0.5-3.7,1.1-5.5,1.7c-1.8,0.6-3.6,1.3-5.4,2c-1.8,0.7-3.5,1.5-5.3,2.3
		c-0.9,0.4-1.7,0.8-2.6,1.2c-0.4,0.2-0.9,0.4-1.3,0.6c-0.3,0.1-0.5,0.3-0.8,0.4c-0.1,0-0.1,0-0.2,0c-0.4,0-0.7,0-1.1-0.1
		c-0.4,0-0.7,0-1.1,0c-0.7,0-1.4-0.1-2.1-0.1c-1.4,0-2.8,0-4.2,0c-0.7,0-1.4,0.1-2.1,0.1c-0.7,0-1.4,0.1-2.1,0.2
		c-1.4,0.1-2.7,0.3-4,0.5c-1.3,0.2-2.6,0.5-3.8,0.8c-1.2,0.3-2.4,0.7-3.5,1.1c-1.1,0.4-2.2,0.9-3.2,1.4c-1,0.5-1.9,1.1-2.7,1.8
		c-0.4,0.3-0.8,0.7-1.1,1.1c0,0-0.1,0.1-0.1,0.1l-0.1,0.1l0,0l0,0c-0.1,0.1-0.1,0.2-0.2,0.3c-0.1,0.1-0.2,0.2-0.2,0.3
		c-0.1,0.1-0.1,0.2-0.2,0.3c-0.3,0.4-0.5,0.9-0.7,1.3c-0.2,0.5-0.2,0.9-0.3,1.4c0,0.2,0,0.5,0,0.7c0,0.2,0.1,0.4,0.1,0.6
		c0.1,0.4,0.3,0.7,0.4,1c0.3,0.6,0.6,1.1,0.9,1.5c0.3,0.4,0.5,0.7,0.6,1c0.1,0.3,0.2,0.5,0.2,0.7c0,0.1,0,0.2,0,0.2c0,0,0,0.1,0,0.1
		s0,0,0-0.1c0,0,0.1-0.1,0.1-0.2c0.1-0.2,0.2-0.4,0.2-0.8c0-0.4-0.1-0.8-0.3-1.3c-0.1-0.5-0.3-1-0.5-1.6c-0.2-0.6-0.3-1.1-0.2-1.7
		c0.1-0.6,0.3-1.2,0.7-1.8c0.1-0.1,0.1-0.2,0.2-0.2c0.1-0.1,0.1-0.2,0.2-0.2c0.1-0.1,0.1-0.2,0.2-0.2l0.1-0.1c0,0,0.1-0.1,0.1-0.1
		c0.3-0.3,0.6-0.6,1-0.8c0.7-0.5,1.6-1,2.5-1.4c1.8-0.8,4-1.5,6.3-1.9c1.2-0.2,2.4-0.4,3.6-0.5c1.2-0.1,2.5-0.2,3.8-0.3
		c0.7,0,1.3-0.1,2-0.1c0.7,0,1.3,0,2,0c1.4,0,2.7,0,4.1,0.1c0.7,0,1.4,0.1,2.1,0.1c0.3,0,0.7,0,1.1,0.1c0.4,0,0.7,0,1.1,0.1
		c1.4,0.1,2.8,0.2,4.3,0.3c2.8,0.2,5.7,0.4,8.5,0.6c1.4,0.1,2.8,0.2,4.2,0.3c1.4,0.1,2.7,0.2,4.1,0.3c2.7,0.2,5.3,0.3,7.7,0.3
		c1.2,0,2.4,0,3.6,0c1.2,0,2.3-0.1,3.4-0.1c2.2-0.2,4.2-0.4,5.9-0.8c0.9-0.2,1.7-0.4,2.4-0.6c0.7-0.2,1.4-0.4,2-0.6
		c1.2-0.4,2.1-0.8,2.7-1.1c0.2-0.1,0.3-0.1,0.4-0.2c0.1-0.1,0.2-0.1,0.3-0.1c0.2-0.1,0.2-0.1,0.2-0.1s-0.3,0.1-1,0.3
		c-0.2,0-0.3,0.1-0.5,0.1c-0.2,0-0.4,0.1-0.7,0.1c-0.2,0.1-0.5,0.1-0.8,0.2c-0.3,0.1-0.6,0.1-0.9,0.2c-1.2,0.2-2.7,0.4-4.4,0.5
		c-0.9,0.1-1.8,0.1-2.7,0.1c-1,0-2,0-3,0c-2.1,0-4.4-0.2-6.8-0.4c-1.2-0.1-2.5-0.2-3.7-0.3c-1.3-0.1-2.6-0.3-3.9-0.4
		c-1.3-0.1-2.7-0.3-4.1-0.4c-1.4-0.1-2.8-0.3-4.2-0.4c-2.3-0.2-4.7-0.4-7-0.6c0.1-0.1,0.2-0.1,0.3-0.2c1.7-0.9,3.3-1.7,5-2.5
		c1.7-0.8,3.4-1.5,5.2-2.2c1.7-0.7,3.5-1.3,5.3-1.8c1.8-0.6,3.6-1,5.4-1.4c1.8-0.4,3.7-0.7,5.5-0.9c0.9-0.1,1.8-0.2,2.8-0.2l1.4-0.1
		l1.4,0l1.4,0l0.4,0l0.3,0l0.7,0c0.9,0,1.9,0.1,2.8,0.2l1.4,0.1c0.1,0,0.2,0,0.3,0l0.3,0l0.7,0.1l1.4,0.2l1.4,0.2l0.7,0.1
		c0.1,0,0.2,0,0.3,0.1l0.3,0.1l1.4,0.3c0.5,0.1,0.9,0.2,1.4,0.4l0.7,0.2c0.2,0.1,0.5,0.1,0.7,0.2c0.9,0.3,1.8,0.6,2.6,0.9l0.7,0.2
		l0.3,0.1l0.3,0.1l1.3,0.5c0.4,0.2,0.9,0.4,1.3,0.6l0.6,0.3l0.6,0.3c0.4,0.2,0.8,0.4,1.3,0.6l1.3,0.6c1.7,0.9,3.4,1.7,5.1,2.6
		l0.6,0.3l0.3,0.2l0.3,0.2c0.4,0.2,0.8,0.4,1.2,0.7c0.4,0.2,0.8,0.5,1.2,0.7c0.4,0.3,0.7,0.5,1,0.8c0.3,0.3,0.6,0.6,0.7,0.8
		c0.1,0.1,0.1,0.2,0.1,0.4c0,0.1,0,0.2,0,0.3c0,0.2-0.2,0.6-0.4,1c-0.2,0.4-0.4,0.8-0.7,1.3c-0.5,0.9-0.8,2-0.9,3.2
		c-0.1,0.6,0,1.1,0,1.7c0,0.5,0.1,1,0.2,1.4c0,0,0,0,0,0c0,0.1,0,0.2,0,0.4c0,0.2,0,0.5-0.1,0.7c0,0.1,0,0.2-0.1,0.4
		c0,0.1-0.1,0.2-0.1,0.4c-0.1,0.2-0.1,0.5-0.2,0.7l-0.1,0.2c0,0.1,0,0.1-0.1,0.2l-0.1,0.2c0,0.1-0.1,0.1-0.1,0.2l-0.1,0.2
		c0,0.1-0.1,0.1-0.1,0.2c-0.1,0.1-0.1,0.2-0.2,0.3c-0.1,0.2-0.3,0.4-0.5,0.6l-0.3,0.3l-0.3,0.3c-0.1,0.1-0.2,0.2-0.3,0.3
		c-0.1,0-0.1,0.1-0.2,0.1l-0.2,0.1c-0.2,0.2-0.4,0.3-0.7,0.5c-0.1,0.1-0.2,0.1-0.4,0.2l-0.2,0.1c-0.1,0-0.1,0.1-0.2,0.1l-0.4,0.2
		l-0.4,0.2c-0.3,0.1-0.5,0.2-0.8,0.3c-0.1,0-0.3,0.1-0.4,0.1l-0.4,0.1c-0.3,0.1-0.6,0.1-0.9,0.2l-0.9,0.1l0.9,0.1c0.3,0,0.6,0,0.9,0
		l0.4,0c0.1,0,0.3,0,0.4,0c0.3,0,0.6,0,0.9-0.1l0.5-0.1l0.4-0.1c0.1,0,0.2,0,0.2-0.1l0.2-0.1c0.1,0,0.3-0.1,0.4-0.1
		c0.3-0.1,0.6-0.2,0.9-0.4l0.2-0.1c0.1,0,0.1-0.1,0.2-0.1c0.1-0.1,0.3-0.1,0.4-0.2l0.4-0.3l0.4-0.3c0.3-0.2,0.5-0.4,0.7-0.6
		c0.1-0.1,0.2-0.2,0.3-0.4c0.1-0.1,0.1-0.1,0.2-0.2l0.2-0.2c0.1-0.1,0.1-0.1,0.2-0.2l0.1-0.2c0-0.1,0.1-0.1,0.1-0.2l0.1-0.2
		c0.2-0.3,0.3-0.6,0.5-0.9c0.1-0.1,0.1-0.3,0.2-0.5c0.1-0.2,0.1-0.3,0.2-0.5c0.1-0.3,0.2-0.6,0.3-1c0-0.2,0.1-0.3,0.1-0.5
		c0-0.1,0-0.2,0.1-0.3c0,0,0-0.1,0-0.1l0-0.1l0,0l0-0.1l-0.1-0.4v0c-0.3-0.8-0.5-1.5-0.5-2.3c0-0.2,0-0.4,0-0.6c0-0.2,0-0.4,0.1-0.6
		c0.1-0.4,0.2-0.8,0.3-1.2c0.1-0.4,0.3-0.8,0.5-1.3c0.1-0.2,0.2-0.5,0.3-0.8c0.1-0.3,0.2-0.6,0.2-0.9
		C317.4,32.1,317.4,31.8,317.3,31.4z M313.5,40.5C313.5,40.5,313.5,40.5,313.5,40.5L313.5,40.5C313.5,40.5,313.5,40.6,313.5,40.5
		c0,0.1,0,0.1,0,0.1c0,0,0,0,0,0L313.5,40.5z M313.5,41L313.5,41L313.5,41L313.5,41z"/>
</g>
<g id="Слой_4">
	<g id="XMLID_00000155111711716687788100000011516283101383660220_">
		<g id="XMLID_00000121264553645244323990000018096792878218171534_">
			<path id="XMLID_00000060711098578923539340000009604269921879255446_" class="st3" d="M244.4,4.6c0,0-4.4-2.6-11.1,1.5
				c-5.2,3.2-13.1-1.8-24.7-4.3c-11.8-2.6-30.9-0.6-45.2,11.6c0,0-3.2-0.2-6.6-0.6c-8.5-0.8-19.8,0.1-26.4,4.3
				c-5.7,3.5-6.2,11-6.2,11s3.5-13.2,24.4-12.8c24.4,0.4,53.7,7.1,71.6-2.1c-0.7,0.3-9.2,2.9-21.3,2.8c-13.7-0.2-25.9-1.4-30.7-1.9
				c0,0,18.5-14.7,42.7-8.3c19.5,5.2,27.8,7.8,30.1,12.9c0,0-0.1-6.9-7.9-8.8c0.5-0.2,1-0.4,1.5-0.7C238.9,6.6,241,4.5,244.4,4.6z"
				/>
			<path id="XMLID_00000111912087496273680330000017788454458794645383_" class="st3" d="M220.2,13.3c0.3-0.1,0.4-0.2,0.4-0.2
				C220.5,13.1,220.3,13.2,220.2,13.3z"/>
		</g>
		<path id="XMLID_00000139268937945858586650000010505140182992255368_" class="st3" d="M213,23.3c5.9,0,10.7,4.8,10.7,10.7
			c0,1.2-0.2,2.4-0.6,3.5c1.1-1.6,1.7-3.5,1.7-5.6c0-5.6-4.5-10.1-10.1-10.1c-2.8,0-5.4,1.2-7.2,3.1C209.1,23.8,211,23.3,213,23.3z"
			/>
	</g>
</g>
<g id="Слой_3">
	<g>
		<path class="st3" d="M43.1,21v1c-1.2,0-2.1,0.2-2.7,0.4c-0.6,0.2-1,0.6-1.2,1.2c-0.2,0.6-0.3,1.6-0.3,2.8v25.8
			c0,1.2,0.1,2.2,0.3,2.8s0.6,1,1.2,1.2c0.6,0.2,1.5,0.3,2.7,0.4v1c-0.8-0.1-1.8-0.1-3-0.1c-1.2,0-2.4,0-3.6,0c-1.4,0-2.6,0-3.8,0
			c-1.2,0-2.1,0.1-2.9,0.1v-1c1.2-0.1,2.1-0.2,2.7-0.4c0.6-0.2,1-0.6,1.2-1.2s0.3-1.6,0.3-2.8V23.7l0.2,0.2L21.5,58.1h-0.8L7.6,24.3
			v27.5c0,1.2,0.1,2.2,0.3,2.9c0.2,0.7,0.7,1.2,1.4,1.5c0.7,0.3,1.7,0.5,3,0.5v1c-0.6-0.1-1.4-0.1-2.4-0.1c-1,0-2,0-2.9,0
			c-0.9,0-1.7,0-2.6,0c-0.9,0-1.6,0.1-2.2,0.1v-1c1.2-0.1,2.1-0.3,2.7-0.5c0.6-0.3,1-0.8,1.2-1.5C6.3,54,6.4,53,6.4,51.8V26.5
			c0-1.3-0.1-2.2-0.3-2.8c-0.2-0.6-0.6-1-1.2-1.2c-0.6-0.2-1.5-0.4-2.7-0.4v-1c0.6,0,1.3,0.1,2.2,0.1c0.9,0,1.8,0.1,2.6,0.1
			c0.8,0,1.6,0,2.4-0.1c0.8,0,1.5-0.1,2.1-0.1l11.8,31.1l-0.9,0.4L34,21.2c0.4,0,0.8,0,1.2,0c0.4,0,0.8,0,1.2,0c1.2,0,2.4,0,3.6-0.1
			C41.3,21.1,42.3,21,43.1,21z"/>
		<path class="st3" d="M58.5,30.3c3.1,0,5.4,0.9,7.1,2.8c1.7,1.9,2.6,4.7,2.6,8.7H49.9l-0.1-1h13.4c0.1-1.7-0.1-3.3-0.4-4.7
			c-0.3-1.4-0.9-2.6-1.6-3.5c-0.7-0.9-1.7-1.3-2.9-1.3c-1.6,0-3,0.8-4.2,2.4c-1.2,1.6-2,4.1-2.2,7.6l0.2,0.2
			c-0.1,0.5-0.1,1.1-0.2,1.7c0,0.6-0.1,1.2-0.1,1.9c0,2.4,0.4,4.4,1.1,6.1c0.8,1.7,1.8,3,3,3.9c1.2,0.9,2.5,1.3,3.8,1.3
			c1.6,0,3-0.4,4.3-1.1c1.3-0.8,2.4-2.1,3.3-4.1l1,0.4c-0.4,1.1-1,2.3-1.9,3.3c-0.9,1.1-2,2-3.3,2.6c-1.3,0.7-2.8,1-4.6,1
			c-2.5,0-4.6-0.6-6.4-1.7c-1.8-1.1-3.2-2.7-4.1-4.8c-1-2-1.4-4.4-1.4-7c0-3,0.5-5.7,1.5-7.9c1-2.2,2.3-3.9,4.1-5.1
			C54.1,30.9,56.1,30.3,58.5,30.3z"/>
		<path class="st3" d="M88.3,30.3c0.9,0,1.8,0.2,2.5,0.6c0.7,0.4,1.3,0.9,1.7,1.5c0.4,0.6,0.6,1.3,0.6,2.1c0,0.9-0.3,1.6-0.8,2.3
			c-0.5,0.7-1.3,1-2.2,1c-0.7,0-1.4-0.2-1.9-0.7c-0.6-0.5-0.8-1.1-0.8-2c0-0.7,0.2-1.2,0.5-1.7c0.4-0.5,0.8-0.8,1.2-1.1
			c-0.2-0.3-0.6-0.5-1.1-0.5c-1.5,0-2.7,0.5-3.8,1.6c-1.1,1.1-1.9,2.4-2.5,3.9c-0.6,1.5-0.9,2.9-0.9,4.2v11c0,1.7,0.5,2.8,1.5,3.4
			c1,0.6,2.3,0.9,4,0.9v1.1c-0.8,0-1.9-0.1-3.4-0.1c-1.5-0.1-3-0.1-4.6-0.1c-1.2,0-2.3,0-3.5,0.1c-1.2,0.1-2,0.1-2.6,0.1v-1.1
			c1.4,0,2.4-0.3,3-0.8c0.6-0.5,0.9-1.5,0.9-3V36.7c0-1.6-0.3-2.7-0.8-3.5c-0.6-0.7-1.6-1.1-3.1-1.1V31c1.1,0.1,2.2,0.2,3.2,0.2
			c1,0,2-0.1,2.9-0.2c0.9-0.1,1.8-0.3,2.5-0.5V37c0.4-1,0.9-2,1.6-3c0.7-1,1.6-1.9,2.6-2.6C86,30.7,87.1,30.3,88.3,30.3z"/>
		<path class="st3" d="M104.6,30.3c1.4,0,2.6,0.2,3.5,0.7c1,0.5,1.7,0.9,2.1,1.2c1.1,0.9,1.8,0.3,2.1-1.9h1.2
			c-0.1,1-0.1,2.1-0.2,3.5c0,1.3-0.1,3.1-0.1,5.4h-1.2c-0.2-1.3-0.6-2.5-1.1-3.7c-0.5-1.2-1.2-2.2-2.2-3c-1-0.8-2.2-1.2-3.8-1.2
			c-1.2,0-2.2,0.3-3,1c-0.8,0.7-1.2,1.7-1.2,3c0,1,0.3,1.9,0.9,2.7c0.6,0.7,1.4,1.4,2.4,2.1c1,0.6,2.1,1.3,3.3,2.1
			c2,1.3,3.7,2.6,5,3.9c1.4,1.3,2.1,3.1,2.1,5.2c0,1.6-0.4,2.9-1.2,4c-0.8,1.1-1.9,1.9-3.2,2.4s-2.8,0.8-4.4,0.8
			c-0.8,0-1.5-0.1-2.2-0.2c-0.7-0.1-1.3-0.3-2-0.5c-0.3-0.2-0.7-0.4-1.1-0.6c-0.4-0.2-0.7-0.5-1.1-0.8c-0.3-0.3-0.7-0.3-0.9,0
			c-0.3,0.3-0.5,0.9-0.6,1.7h-1.2c0.1-1.1,0.1-2.5,0.2-4.1c0-1.6,0.1-3.7,0.1-6.3h1.2c0.2,1.9,0.6,3.6,1,5.1
			c0.5,1.5,1.2,2.6,2.1,3.4c1,0.8,2.3,1.2,4.1,1.2c1,0,2.1-0.4,3.1-1.1c1-0.7,1.5-2,1.5-3.8c0-1.5-0.6-2.8-1.7-3.7
			c-1.1-1-2.5-2-4.2-3.1c-1.2-0.8-2.4-1.6-3.5-2.4c-1.1-0.8-2-1.7-2.7-2.7c-0.7-1-1-2.2-1-3.6c0-1.6,0.4-2.8,1.1-3.8
			c0.7-1,1.7-1.7,2.8-2.2C102,30.6,103.3,30.3,104.6,30.3z"/>
		<path class="st3" d="M118.8,21c0.7,0,1.7,0.1,2.9,0.1c1.2,0,2.3,0.1,3.5,0.1c1.6,0,3.2,0,4.7-0.1c1.5,0,2.5-0.1,3.2-0.1
			c3.6,0,6.4,0.8,8.2,2.3c1.8,1.5,2.8,3.5,2.8,5.9c0,1.2-0.3,2.4-0.8,3.6c-0.5,1.2-1.3,2.2-2.5,3.2c-1.2,1-2.7,1.7-4.7,2.3v0.1
			c2.7,0.3,4.9,1,6.4,2c1.5,1,2.6,2.1,3.2,3.4c0.6,1.3,0.9,2.6,0.9,4.1c0,2.9-1.1,5.4-3.3,7.3c-2.2,1.9-5.3,2.8-9.2,2.8
			c-0.8,0-1.9,0-3.4-0.1c-1.5-0.1-3.4-0.1-5.5-0.1c-1.2,0-2.4,0-3.6,0c-1.2,0-2.1,0.1-2.9,0.1v-1c1.2-0.1,2.1-0.2,2.7-0.4
			c0.6-0.2,1-0.6,1.2-1.2s0.3-1.6,0.3-2.8V26.5c0-1.3-0.1-2.2-0.3-2.8c-0.2-0.6-0.6-1-1.2-1.2c-0.6-0.2-1.5-0.4-2.7-0.4V21z
			 M131.7,22.1c-1.6,0-2.6,0.3-3.1,0.9c-0.5,0.6-0.7,1.8-0.7,3.6v25.8c0,1.8,0.3,3,0.8,3.5c0.5,0.5,1.6,0.8,3.1,0.8
			c3.4,0,5.9-0.8,7.4-2.4c1.5-1.6,2.3-3.8,2.3-6.7c0-2.7-0.7-4.7-2.2-6.2c-1.4-1.5-3.8-2.2-7.1-2.2h-5.4v-0.9h4.5
			c2,0,3.6-0.4,4.7-1.2c1.1-0.8,1.9-1.8,2.3-3.1c0.4-1.3,0.6-2.7,0.6-4.2c0-2.6-0.6-4.5-1.7-5.8C136.2,22.7,134.3,22.1,131.7,22.1z"
			/>
		<path class="st3" d="M163.2,30.3c3.1,0,5.4,0.9,7.1,2.8c1.7,1.9,2.6,4.7,2.6,8.7h-18.4l-0.1-1h13.4c0.1-1.7-0.1-3.3-0.4-4.7
			c-0.3-1.4-0.9-2.6-1.6-3.5c-0.7-0.9-1.7-1.3-2.9-1.3c-1.6,0-3,0.8-4.2,2.4c-1.2,1.6-2,4.1-2.2,7.6l0.2,0.2
			c-0.1,0.5-0.1,1.1-0.2,1.7c0,0.6-0.1,1.2-0.1,1.9c0,2.4,0.4,4.4,1.1,6.1c0.8,1.7,1.8,3,3,3.9c1.2,0.9,2.5,1.3,3.8,1.3
			c1.6,0,3-0.4,4.3-1.1c1.3-0.8,2.4-2.1,3.3-4.1l1,0.4c-0.4,1.1-1,2.3-1.9,3.3c-0.9,1.1-2,2-3.3,2.6c-1.3,0.7-2.8,1-4.6,1
			c-2.5,0-4.6-0.6-6.4-1.7c-1.8-1.1-3.2-2.7-4.1-4.8c-1-2-1.4-4.4-1.4-7c0-3,0.5-5.7,1.5-7.9c1-2.2,2.3-3.9,4.1-5.1
			C158.7,30.9,160.8,30.3,163.2,30.3z"/>
		<path class="st3" d="M194.3,30.3c1.3,0,2.4,0.2,3.3,0.5c0.9,0.3,1.6,0.8,2.2,1.5c0.7,0.7,1.1,1.6,1.4,2.6c0.3,1,0.4,2.4,0.4,4.2
			V53c0,1.5,0.3,2.4,0.9,3c0.6,0.5,1.6,0.8,3,0.8v1.1c-0.6,0-1.5-0.1-2.7-0.1c-1.2-0.1-2.4-0.1-3.5-0.1s-2.3,0-3.4,0.1
			c-1.1,0.1-1.9,0.1-2.5,0.1v-1.1c1.2,0,2.1-0.3,2.7-0.8s0.8-1.5,0.8-3V38c0-1.1-0.1-2.1-0.3-3c-0.2-0.9-0.6-1.6-1.2-2.2
			c-0.6-0.6-1.5-0.8-2.8-0.8c-2.2,0-3.9,0.9-5.3,2.7c-1.3,1.8-2,4.1-2,6.7V53c0,1.5,0.3,2.4,0.8,3s1.4,0.8,2.7,0.8v1.1
			c-0.6,0-1.4-0.1-2.5-0.1c-1.1-0.1-2.2-0.1-3.4-0.1s-2.3,0-3.5,0.1c-1.2,0.1-2.1,0.1-2.7,0.1v-1.1c1.4,0,2.4-0.3,3-0.8
			c0.6-0.5,0.9-1.5,0.9-3V36.7c0-1.6-0.3-2.7-0.8-3.5c-0.6-0.7-1.6-1.1-3.1-1.1V31c1.1,0.1,2.2,0.2,3.2,0.2c1,0,2-0.1,2.9-0.2
			c0.9-0.1,1.8-0.3,2.5-0.5v6.1c0.9-2.4,2.2-4,3.8-4.9C190.9,30.8,192.5,30.3,194.3,30.3z"/>
	</g>
</g>
</svg>
